<?xml version="1.0" encoding="UTF-8"?><!DOCTYPE svg PUBLIC "-//W3C//DTD SVG 1.0//EN" "http://www.w3.org/TR/2001/REC-SVG-20010904/DTD/svg10.dtd" []><svg xmlns="http://www.w3.org/2000/svg" xmlns:xlink="http://www.w3.org/1999/xlink" height="482" preserveAspectRatio="xMidYMid meet" version="1.0" viewBox="0.0 0.0 345.9 481.6" width="346" zoomAndPan="magnify"><g fill="#E0B10B" id="change1_1"><path d="M12.5,296.2c0-1.6-1.5-3-3.3-3s-3.3,1.3-3.3,3s1.5,3,3.3,3S12.5,297.8,12.5,296.2z"/><ellipse cx="9.2" cy="315" rx="3.3" ry="3"/><path d="M12.5,333.8c0-1.6-1.5-3-3.3-3s-3.3,1.3-3.3,3s1.5,3,3.3,3S12.5,335.4,12.5,333.8z"/><ellipse cx="9.2" cy="147.7" rx="3.3" ry="3"/><path d="M12.5,166.4c0-1.6-1.5-3-3.3-3s-3.3,1.3-3.3,3c0,1.6,1.5,3,3.3,3S12.5,168.1,12.5,166.4z"/><ellipse cx="9.2" cy="185.2" rx="3.3" ry="3"/><ellipse cx="193.3" cy="9.2" rx="3.2" ry="3.3"/><ellipse cx="172.9" cy="9.2" rx="3.2" ry="3.3"/><path d="M155.7,9.2c0-1.8-1.4-3.3-3.2-3.3s-3.2,1.5-3.2,3.3s1.4,3.3,3.2,3.3S155.7,11,155.7,9.2z"/><ellipse cx="336.6" cy="185.2" rx="3.3" ry="3"/><path d="M333.3,166.4c0,1.6,1.5,3,3.3,3s3.3-1.3,3.3-3c0-1.6-1.5-3-3.3-3S333.3,164.8,333.3,166.4z"/><ellipse cx="336.6" cy="147.7" rx="3.3" ry="3"/><path d="M333.3,333.8c0,1.6,1.5,3,3.3,3s3.3-1.3,3.3-3s-1.5-3-3.3-3S333.3,332.1,333.3,333.8z"/><ellipse cx="336.6" cy="315" rx="3.3" ry="3"/><path d="M333.3,296.2c0,1.6,1.5,3,3.3,3s3.3-1.3,3.3-3s-1.5-3-3.3-3S333.3,294.5,333.3,296.2z"/><path d="M149.3,472.2c0,1.8,1.4,3.3,3.2,3.3s3.2-1.5,3.2-3.3s-1.4-3.3-3.2-3.3S149.3,470.4,149.3,472.2z"/><ellipse cx="172.9" cy="472.2" rx="3.2" ry="3.3"/><ellipse cx="193.3" cy="472.2" rx="3.2" ry="3.3"/><path d="M11.5,11.5c0.6-0.6,1-1.4,1-2.3c0-1.8-1.5-3.3-3.3-3.3c-0.9,0-1.7,0.4-2.3,1c-0.6,0.6-1,1.4-1,2.3 c0,1.8,1.5,3.3,3.3,3.3C10.1,12.5,10.9,12.1,11.5,11.5z"/><path d="M345.8,30.2l-8.4-8.4v-4.1l8.4-8.4l-4.6-4.6L336.6,0l-8.4,8.4H324L315.6,0l-8.3,8.3h-53.7v0.2h-52L193.3,0 l-8.2,8.4h-4L172.9,0l-8.2,8.4h-4L152.5,0l-8.1,8.3H92.2v0.2H38.7L30.2,0l-8.4,8.4h-4.1L9.2,0L4.6,4.6L0,9.2l8.4,8.4v4.1L0,30.2 l8.3,8.3v53.7h0.2V140L0,147.7l8.4,7.5v3.7L0,166.4l8.4,7.5v3.7L0,185.2l8.3,7.4v48h0.2v47.8L0,296.2l8.4,7.5v3.7L0,315l8.4,7.5 v3.7L0,333.8l8.3,7.4v48h0.2v53.4L0,451.2l8.4,8.4v4.1L0,472.2l4.6,4.6l4.6,4.6l8.4-8.4h4.1l8.4,8.4l8.3-8.3h53.7v-0.2h52l8.3,8.6 l8.2-8.4h4l8.2,8.4l8.2-8.4h4l8.2,8.4l8.1-8.3h52.2v-0.2H307l8.6,8.6l8.4-8.4h4.1l8.4,8.4l4.6-4.6l4.6-4.6l-8.4-8.4v-4.1l8.4-8.4 l-8.3-8.3v-53.7h-0.2v-47.8l8.6-7.7l-8.4-7.5v-3.7l8.4-7.5l-8.4-7.5v-3.7l8.4-7.5l-8.3-7.4v-48h-0.2v-47.8l8.6-7.7l-8.4-7.5V174 l8.4-7.5l-8.4-7.5v-3.7l8.4-7.5l-8.3-7.4v-48h-0.2V38.7L345.8,30.2z M336.6,2.1l3.5,3.5l3.5,3.5l-7.1,7.1l-3.5-3.5l-3.5-3.5 L336.6,2.1z M193.3,2.1l6.9,7.1l-6.9,7.1l-6.9-7.1L193.3,2.1z M172.9,2.1l6.9,7.1l-6.9,7.1L166,9.2L172.9,2.1z M152.5,2.1l6.9,7.1 l-6.9,7.1l-6.9-7.1L152.5,2.1z M2.1,9.2l3.5-3.5l3.5-3.5l7.1,7.1l-3.5,3.5l-3.5,3.5L2.1,9.2z M9.2,141.3l7.1,6.3L9.2,154l-7.1-6.3 L9.2,141.3z M9.2,160.1l7.1,6.3l-7.1,6.3l-7.1-6.3L9.2,160.1z M9.2,178.9l7.1,6.3l-7.1,6.3l-7.1-6.3L9.2,178.9z M9.2,289.9l7.1,6.3 l-7.1,6.3l-7.1-6.3L9.2,289.9z M9.2,308.6l7.1,6.3l-7.1,6.3L2.1,315L9.2,308.6z M9.2,327.4l7.1,6.3l-7.1,6.3l-7.1-6.3L9.2,327.4z M9.2,479.3l-3.5-3.5l-3.5-3.5l7.1-7.1l3.5,3.5l3.5,3.5L9.2,479.3z M152.5,479.3l-6.9-7.1l6.9-7.1l6.9,7.1L152.5,479.3z M172.9,479.3l-6.9-7.1l6.9-7.1l6.9,7.1L172.9,479.3z M193.3,479.3l-6.9-7.1l6.9-7.1l6.9,7.1L193.3,479.3z M343.7,472.2l-3.5,3.5 l-3.5,3.5l-7.1-7.1l3.5-3.5l3.5-3.5L343.7,472.2z M336.6,340.1l-7.1-6.3l7.1-6.3l7.1,6.3L336.6,340.1z M336.6,321.3l-7.1-6.3 l7.1-6.3l7.1,6.3L336.6,321.3z M336.6,302.5l-7.1-6.3l7.1-6.3l7.1,6.3L336.6,302.5z M336.6,191.6l-7.1-6.3l7.1-6.3l7.1,6.3 L336.6,191.6z M336.6,172.8l-7.1-6.3l7.1-6.3l7.1,6.3L336.6,172.8z M336.6,154l-7.1-6.3l7.1-6.3l7.1,6.3L336.6,154z M336,140 l-8.6,7.7l8.4,7.5v3.7l-8.4,7.5l8.4,7.5v3.7l-8.4,7.5l8.3,7.4v48h0.2v47.8l-8.6,7.7l8.4,7.5v3.7l-8.4,7.5l8.4,7.5v3.7l-8.4,7.5 l8.3,7.4v48h0.2v53.4l-8.6,8.6l8.4,8.4v4.1l-3.8,3.8l-3.8,3.8H324l-8.4-8.4l-8.3,8.3h-53.7v0.2h-52l-8.3-8.6l-8.2,8.4h-4l-8.2-8.4 l-8.2,8.4h-4l-8.2-8.4l-8.1,8.3H92.2v0.2H38.7l-8.6-8.6l-8.4,8.4h-4.1l-3.8-3.8l-3.8-3.8v-4.1l8.4-8.4l-8.3-8.3v-53.7H9.8v-47.8 l8.6-7.7l-8.4-7.5v-3.7l8.4-7.5l-8.4-7.5v-3.7l8.4-7.5l-8.3-7.4v-48H9.8v-47.8l8.6-7.7l-8.4-7.5V174l8.4-7.5l-8.4-7.5v-3.7l8.4-7.5 l-8.3-7.4v-48H9.8V38.7l8.6-8.6l-8.4-8.4v-4.1l3.8-3.8l3.8-3.8h4.1l8.4,8.4l8.3-8.3h53.7V9.8h52l8.3,8.6l8.2-8.4h4l8.2,8.4l8.2-8.4 h4l8.2,8.4l8.1-8.3h52.2V9.8H307l8.6,8.6l8.4-8.4h4.1l3.8,3.8l3.8,3.8v4.1l-8.4,8.4l8.3,8.3v53.7h0.2V140z"/><path d="M336.6,12.5c1.8,0,3.3-1.5,3.3-3.3c0-0.9-0.4-1.7-1-2.3c-0.6-0.6-1.4-1-2.3-1c-1.8,0-3.3,1.5-3.3,3.3 c0,0.9,0.4,1.7,1,2.3C334.9,12.1,335.7,12.5,336.6,12.5z"/><path d="M334.3,469.9c-0.6,0.6-1,1.4-1,2.3c0,1.8,1.5,3.3,3.3,3.3c0.9,0,1.7-0.4,2.3-1c0.6-0.6,1-1.4,1-2.3 c0-1.8-1.5-3.3-3.3-3.3C335.7,468.9,334.9,469.3,334.3,469.9z"/><path d="M9.2,468.9c-1.8,0-3.3,1.5-3.3,3.3c0,0.9,0.4,1.7,1,2.3c0.6,0.6,1.4,1,2.3,1c1.8,0,3.3-1.5,3.3-3.3 c0-0.9-0.4-1.7-1-2.3C10.9,469.3,10.1,468.9,9.2,468.9z"/></g></svg>