<?xml version="1.0" encoding="UTF-8"?><!DOCTYPE svg PUBLIC "-//W3C//DTD SVG 1.0//EN" "http://www.w3.org/TR/2001/REC-SVG-20010904/DTD/svg10.dtd" []><svg xmlns="http://www.w3.org/2000/svg" xmlns:xlink="http://www.w3.org/1999/xlink" height="3335.9" preserveAspectRatio="xMidYMid meet" version="1.0" viewBox="65.0 331.1 2867.4 3335.9" width="2867.4" zoomAndPan="magnify"><g><g><g id="change1_4"><path d="M1358.5,386.2c9.9-23.7,29.8-44.5,55.7-49.6c22.7-5.5,46.6,7.1,58.7,26.4c11,15.3,15.1,33.8,19,51.9 c26.9-3.2,47.1,17.7,56.1,40.9c16.2-20.6,35.6-43.7,63.8-45.4c27.9-2.1,48.9,22.5,56.7,46.9c12.3,37.5,12.4,78,8.8,117 c16.3-12.1,37-20.6,57.6-15.6c39.7,7.4,66.5,44.7,76.5,81.7c14.6,60.7-8.5,122.3-36.2,175.7c-27.4,61.4-7.6,131.1-29.5,193.8 c-10.3,35.1-32.9,64.3-56.5,91.6c14.7-5.4,29.6-10.6,45.2-12.3c26.6-46.9,63.7-95.4,119.1-108c27.3-4.3,56.2-5.2,82.7,3.3 c27.7-30.1,64-59.4,107.2-58c22.1-0.5,42.7,13.3,53.6,32c9.9,17.6,10.4,38.2,14.8,57.5c3.1,16,11.3,30.3,17.3,45.3 c46,6.5,92.4,22.5,127.7,53.7c27.2,24.7,50.3,54.5,64.6,88.5c13.1,31.8,5.1,66.6,8.9,99.8c1.8,14.7,1.7,30-6,43.3 c17.8,18.8,25.8,46.6,18,71.7c-6.8,30.5-31.1,52.8-41.4,81.7c-6.1,31.3,11.4,62.5,2.9,93.9c-3.8,33.8-37.5,58.2-70.8,53.1 c3.7,33.5-8.1,67.3-30.8,92c-25,26.6-52.3,52.5-66.6,86.9c-22,36.9-22.5,80.9-29.6,122.1c-6.9,48.5-26.8,95.3-58.3,133 c46.6-8.4,94.1-9.4,141.2-12.2c33.5-1.5,67-13.4,100.5-7c22.3,4.6,32.8,28.7,33,49.5c-0.6,35.3-15.4,68.7-34.4,97.9 c11.1-0.8,26.5-7.6,34,4.2c7.4,13.1,4,28.7,0.6,42.5c3.6,2.4,7.3,4.7,11,7.1c33.8-10.3,69.7-18.6,97.8-41.3 c15.1-13.6,26.7-31.7,31.7-51.4c-9.2-3.9-20.5-9.1-21.1-20.5c-3.8-25.6,31.7-40.6,50.4-25.8c9.2,5.9,10.4,18.7,6.8,28.3 c-3.8,9.1-13.5,13-21.4,17.5c-6,17.2-11.1,35.3-22.6,49.8c-9.7,13.5-23.2,23.3-36.7,32.6c51.7,1.1,102.8-18.5,141.5-52.5 c11.2-9.9,18.5-23.1,24.3-36.7c-7.4-5.4-17.8-11.4-15.9-22.2c0.1-10.7,10.7-15.1,18.7-19.3c8,4.1,19.4,8.6,19,19.6 c1.8,9.5-6.7,14.9-13,19.9c-5,17.1-9.9,35.4-23.7,47.9c-23,20.8-50.2,37.8-80.2,46.3c26.8-1.2,53.7-2.3,80.5-0.6 c11.3,0,23.6,3,34.2-2.7c34.7-16.2,72.8-31.7,96-63.8c-6.7-12.5-9.6-33.5,6.5-39.9c13.7-3,23.4,15.9,15.7,26.5 c-10.3,14.8-17.5,32.2-31.5,44.1c-17.7,16.5-38.7,28.7-60.2,39.5c29.7,1.3,61.4,12.9,89.8-0.8c30.2-15.5,53.3-42.7,65.9-74 c-0.3-8-4-18,3.2-24.2c9.5-10.2,29.4-2.6,28.2,11.9c1.2,11.1-10,15.2-18.1,18.9c-3.8,15-8.9,29.9-18.8,42.1 c-11.6,16.3-29.3,26.4-44.7,38.6c46.6,6.2,97.4,7.5,138.8-18.4c0.3-10.9,2.1-23.6,13.2-28.8c15.7-10.9,44.5-1.2,42.1,20.4 c-4.1,22.9-35.3,28.6-50.7,13.2c-18.4,15.3-38.4,29.2-61.8,35.6c21.3,22.4,42.9,44.7,64.6,66.7c14,5.2,32.8,11.3,32.3,29.8 c0.5,24.4-34.6,29.3-46.4,10.8c-9.9-10.8-2.7-24.5,1.8-35.8c-25.5-30.9-65.2-43.2-102.9-51.9c23,18.4,36.2,51,67.5,57.1 c14.8,1.7,19.1,26.9,3.6,30.6c-16,3.9-28.1-12-26.4-26.9c-30.3-16.9-47.7-49.6-78.6-65.4c-15.5-3-31.5-2.7-47.2-4.1 c21,14.6,32.8,38.5,53.3,53.6c10.5,9.6,27.8-2.7,37.3,9.4c15.7,14.4-2.1,43-21.9,35.1c-14.2-3.8-16-19.9-14.3-32.2 c-21.3-10.8-37.6-28.4-56.7-42.3c-35-20.9-76.6-28.7-117-26.4c35,21.9,51.5,67,92.6,80.1c14.2-7.1,34.6-0.6,36.7,16.7 c-2.7,24.7-41.4,20.1-43-3.1c-24.3-14.9-50.3-27.4-71.7-46.5c-17.5-15.4-35.3-32.1-58.3-38.8c-26.8-9.9-55.3-1.8-82.8-1.5 c12.1,9.9,23.1,21,33.3,32.8c16.2,18.9,40.3,28.1,63.6,34.9c12.1-2.7,26.5-9.5,36.5,1.7c15.8,13.3,4.7,42.5-16,41.5 c-16.5,1.6-26.1-15-26-29.6c-15.3-3.6-31.1-6.4-44.4-15.1c-27.6-17.3-50.1-44.8-83.3-51.6c-25-3-51-0.4-74.6,8.4 c-5.3,23-19.2,44.1-40.1,55.7c24.1,2.4,48.3,12.7,63.3,32.3c11.9,15.7,14.3,38.5,3.6,55.5c-12.8,22.3-38.5,32.3-62.6,36.5 c-7.4,13.2-14.9,26.7-26.4,37c-13.9,13.6-31.7,26.3-35.6,46.7c-2.4,24.5,12.7,49.5,2.7,73.5c-6.5,16.3-25.5,19.5-40.6,22.8 c50.8,30.6,99.2,67.7,134.7,115.8c13.4,20.3,28.9,45.2,19.8,70.4c-2.6,10.7-11.6,17.3-20.1,23.3c19,15.7,37,36.3,38.2,62.2 c1.2,11.9-6,21.9-13.6,30.2c11.6,12.5,23.1,28.5,18.5,46.6c-2.4,13.2-14.2,20.6-25,26.5c33.2,24,56.5,61.2,62.3,101.9 c3.7,23.2-2.2,49.9-21.9,64.6c-16,12.5-37.5,12.4-56.7,9.7c0.2,10.5,2.2,22.2-4.1,31.6c-7.3,12.8-22.4,17.1-36.1,18.9 c-1.2,13.5-4.3,27.8-14.8,37.3c-15,15.4-37.5,18.4-57.9,16.7c4.3,13.6,7.9,29,0.8,42.4c-9.8,18.1-29.3,27.5-42.4,42.7 c-13.2,14.3-19.3,34.2-35.1,46.3c-18.1,13.9-45.2,12.7-63.3-0.7c-26.2-18.7-40-49.8-48.6-79.9c-4.6,34.7-5.7,71.4-25.2,101.8 c-10.7,20.5-32.3,31.1-53.5,37.3c-25.8,7.4-37.8,36.7-64.1,42.9c-20.3,2.1-41.5-1.2-61,6.3c-15.1,6.8-27.5,18.2-41.5,27 c-14.5,8.8-32.2,9.2-46.9,17.4c-13.2,8.5-20.1,24.2-34.3,31.4c-17,3.6-31.2-8.3-45.2-15.8c-15-8.2-28.6-18.7-39.9-31.5 c-14.3,6.7-28.7,2-41.4-5.6c-5.8,14.6-13,31-28.6,37.4c-20.3,8.1-41.1,16-62.9,18.8c-20.9,2.3-39.4-14.2-42.4-34.4 c-9.9-45.9,15.9-87.6,31.9-128.6c-28.5-14.2-28.2-49.8-22.2-76.6c-30.5-28.3-40.4-71.8-41.8-111.9c-1.5-45.8,0.6-92.7,16-136.3 c6.1-19.3,16.6-36.6,25-54.8c-9.5-38.6,6.2-76.9,19.1-112.6c-6.7-12.4-15.7-23.5-23.2-35.3c-20.6-30.1-33-64.8-41.9-99.9 c-5.9-26.2-29.3-44.6-52.7-55.1c-31.5-8.3-64.3-0.5-95.7,4.7c10.8,11.5,23.5,23.5,24.4,40.4c2.6,19.9-7.6,38.4-21,52.3 c-4.3-14.4,1.7-33.4-11.5-43.8c-10.6-8.9-25.1-3.5-35.4,3c-23,15.1-39.8,37.5-56.4,59c-31.9,42.1-66.6,81.9-98.3,124.2 c-16.6,23.1-38.8,41.8-53.6,66.2c27.9,15,52.2,38.5,61.9,69.3c-29.1-21.1-66.9-35.3-102.8-24.8c-37.1,8.7-66.7,34.7-91.8,62.1 c-16.2,17.4-26.4,39.1-40.7,57.9c-15.5,19.9-24.5,43.7-37,65.4c-12.8,24.5-27.9,47.9-38.8,73.5c-6.3,18.1-30.5,13.3-45.6,15.1 c-16.6-0.8-46.3-2.7-42.7-26.4c31.2-49.1,62.7-98.1,92.7-147.9c27-49.5,59.9-99.1,63.9-157c1.6-33.4,1.8-70.9-19.3-98.8 c-10.5-14.8-29.6-11.7-45.3-12.1c4.3-6.5,10.3-12.7,18.8-11.9c23,0.9,45.3,8.3,67,15.6c62.6-82.9,128.6-163.2,192-245.5 c19.7-22,36.1-46.8,56-68.6c7.5-8.6,15.5-17.3,20.1-27.9c2.4-9.7,4.3-19.5,6.2-29.3c10.5,10.9,19.5,23.1,28.3,35.4 c1.4-15.7,4-31.7,0.8-47.3c-8.4-3.8-17.8-3-26.7-2.1c-9,0.8-17.9,1.8-26.8,3c-18.7,1.4-37,6.2-55.7,7.8 c-13.9-1.9-22.3-15.2-27.3-27c-8.9-21.6-25.6-39.5-46.1-50.7c-9.1,20.4-14.7,44.7-34.5,57.9c-9.1,7.6-21.2,8.1-32.2,10.6 c-7.2,33.8-4,69.6-16.4,102.3c-8.5,24.1-21.9,49.8-46.5,60.6c-21.2,8-43.3-3.8-57.6-19.3c-12.9-14.2-26.7-27.7-37.8-43.3 c-10.7-15.5-7.7-35.2-5.9-52.7c-17.4,3.7-34.5-2.4-45-16.8c-26.1,11.2-55,9.4-82.7,9.6c-12,0.3-25.8-3-32.3-13.9 c-7.8-14.2-6.2-31.6-13.6-45.9c-10.4-17.6-29.4-28.1-38.9-46.4c-9.3-17.7-15.6-37.3-28.5-52.9c-13.8-13-29.9-23.4-47.1-31.4 c-20.4-11.6-25.8-35.8-32.1-56.5c-7.5-29.3-38.6-44.3-45.9-73.7c-12.6-48.6,9-96.9,29.3-140.1c-27.5,23.6-57.3,48.7-94.8,52.4 c-28.1,3.9-58.2-13.6-66.6-41c-6.5-18.9-2.1-39.3-6.6-58.5c-4.2-24.6-20.5-46.5-18.8-72.2c1.3-16.5,13.3-28.8,24-40.2 c-24.5-10.3-47.5-31-50.1-58.9c-2.1-13,3.3-25.3,8.6-36.9c-14-8.5-26.1-22.8-26.1-40c-1.1-12.8,6.5-23.7,13.1-33.9 c-20.7-7.4-41.2-19.9-50.9-40.5c-10.9-23.7-4.7-51.9,9.9-72.6c28.3-41.3,75.6-68.7,125.4-73.5c-7-10.9-14.4-23-11.6-36.5 c3-22.4,24.7-35.6,44.9-40.5c-1.2-12.4-3.5-26,3.6-37.2c15.3-26.1,45.3-37.9,73.8-42.4c-9.6-19.6-9.2-44.8,5.9-61.5 c27.2-29,65.8-43.1,103.1-53.9c48-13.6,97.9-18.1,147.5-21.9c-15.7-10-32.3-26-28.4-46.5c4.4-32.5,40.4-48.7,46.3-80.6 c2.5-22.4-8.5-43.1-13.8-64.3c-4.4-14.9-1.8-30.7-3.9-45.8c-11.6-11.6-24.8-22.2-32.4-37.2c-14.1-24-14.1-59,8.5-78 c26.1-24.3,65.8-20.6,97.1-9.7c-11.7-24.2-14.9-52.1-6.8-77.9c-27.5-28.2-62.6-57.5-104.6-54.4c-29-0.5-56.9,9.3-85.8,9.2 c-16.7,0-32.2-6.8-48.3-9.6c-7.4,17.6-30.8,25.6-45.7,12.1c-17.8-13.9-9.4-45.7,12.9-49c14.8-3.5,27,8,34,19.7 c27.7,4.2,56.6,11,84.1,1.4c17.3-6.5,35-12,53.4-14.3c-17.1-13.8-36.1-25-54.2-37.3c-24.7-10.5-52.7-14.8-79.3-9.2 c-23.9,4.5-47.7,10.8-72.1,11.1c-19.4,0.2-38.8,0.9-58.1,1.8c-11.5,15.4-38.1,12.6-45-5.6c-6.3-13.6,7.9-27.5,21.3-26.4 c11.2-1,19.3,7.1,25.9,14.8c48.7,8.7,90.6-25.5,137.8-29.2c-40.9-26.1-89.4-42.2-138.2-38.8c-25.5,4.3-50.9,11-77,10 c-3.2,9.2-6.7,20-17.1,23.2c-16.3,7.3-36.7-8.2-33.2-26c0-13.8,13.8-20.1,25-23.7c8.3,3.4,15.9,8.3,22.4,14.6 c34.7,2.7,63.4-21.1,97.3-24.1c-17.1-7.6-33.7-16.3-51.2-22.7c-40.5-0.2-76.9,21.8-117.5,22.3c-4.7,14.5-21.8,22.9-35.6,15 c-12.6-4.9-11.8-25.2,0.3-30.3c13.3-8,27.5,4,41.5,1c25.7-3.8,48.9-16.9,74.4-21.9c-43.4-14.2-91.7-22.5-135.5-5.2 c-0.2,8.8,2.9,19.2-3.6,26.6c-12.9,17.5-43.9,15.7-53.5-4.1c-8-13.7,1.6-31.5,15.6-36.4c11-5.3,22.7,0.6,34,1.2 c34.6-10.4,69.2-20.4,103.7-31.2c-19.9-19.6-32.9-44.7-41.6-71c-25.7,8.3-57.2-20.7-42.1-46c15.5-22.4,52.5-7.1,55.6,17.4 c3.7,12-11.6,23.4-1.8,34.2c27.7,46.3,78.7,70.1,126.5,90.4c-21-35.4-35-78.6-19.9-119c-8.6-8.1-16-21.8-5.9-31.9 c12.1-15.7,40-1.3,33.2,17.9c-15.7,17.4-12.7,42.3-10.6,63.9c6.7,32,18.3,66.8,47.2,85.5c20.7,12,43.8,19.2,65.6,28.9 c-16.7-29.3-35.8-58.6-41.2-92.5c-0.5-15.6-1.9-31.1-1.8-46.7c1.4-10.6,11.7-15.2,19.8-19.9c5.7,4.3,15.5,6.8,15.4,15.7 c2.6,14.4-7.8,25.9-19.2,32.7c-1.2,26.9,13.6,50.1,26.1,72.6c10.7,20.1,25.7,37.2,39.2,55.3c11.7,8.7,25.6,13.6,38.2,20.6 c24.3,11.9,47,26.6,69.9,40.9c-24.2-24-40.8-54.7-52.7-86.3c-8.4-21.6-5.1-45.5,1.4-67.1c-9.3-12.5-6.5-33,10-37.3 c18-6.4,35.6,16,25.2,31.9c-5.2,10.4-17.7,10.7-27.7,11.4c-2.2,20.8-1.2,42.3,7.5,61.7c13.9,30.9,31.9,60.5,56.6,84 c16,15.9,35.3,27.7,53.7,40.6c-9.3-18.8-18.3-38.4-19.9-59.6c-2.2-20.2,2.2-40.3,5.7-60c-5.9-8-10.2-16.9-13.4-26.2 c3.3-9.1,5.6-20.3,15.4-24.6c28.3-15.1,65.7,23.7,46.7,50.7c-7.8,12.4-23.3,11-35.9,9.8c-2,23.1-3.7,47.2,4.6,69.3 c7.5,19,19,36.4,32.7,51.6c14.2,15.8,27.3,33.4,44.8,45.8c3.3-0.1,10.1-0.3,13.4-0.3c3.7-17.7,11.3-38.5,29.6-45.3 c13.1-1,22,10.9,31.3,18.2c-1.8-42.2,0.9-87.2,24.1-123.9c11.7-18.4,33.5-33.1,56.1-27.3c30.1,8,52.5,31.2,77.3,48.7 c41.2,30.8,87.2,54.7,128.4,85.6c14.9,10.9,28.3,23.7,43,35c-6.5-22.8-16.3-45.1-16.3-69.2c-3.3-32.3,4.8-63.9,14-94.5 c20.6-68.6,71.9-121.5,102.3-185.3c23.6-43.7,36.1-96.9,77.9-127.9C1327.1,383.7,1343.5,384.1,1358.5,386.2z M1380.2,386.6 c-24.9,43.1-10.7,94.7-18,141.6c-4,39.4-22.8,77.7-54.1,102.5c10.8-16.3,24.3-31.3,29.8-50.5c19.9-59.6,1.4-123.5,16.8-183.9 c-15.8,12.1-34.8,20.8-46.4,37.5c-20.5,28.6-31.9,62.4-48.5,93.1c-28.3,57.9-73.5,105.9-99,165.4 c-16.6,41.2-16.4,86.5-12.5,130.1c2.1,19,8.2,37.1,14.8,54.9c8.5,22.9,24.5,41.9,34.2,64.2c12.6,28.7,27.6,56.6,37,86.6 c14.8,46.5,27.1,93.9,34.5,142.1c8.4,50.4,19.7,100.2,34.8,149c13.4,43.1,26.7,87,50.6,125.7c-10.3,4-13.8-9.7-20.1-15.1 c-24.6-42.4-40.7-88.8-53.9-135.7c-27.5-88.8-33.8-182.9-66.9-270.2c-20.1-64.7-64.4-119.3-116.5-161.4 c-45.9-38.2-100.4-63.9-147.6-100.4c-16.4-12.1-32-25.6-49.8-35.6c-12.3-7.2-30.4-8.5-40.3,3.5c-22.9,26.6-25.4,63.8-27.3,97.3 c1.2,21,3.7,42.5-4.4,62.7c-15.6-14.8-25-36.2-46.3-44.3c-14.7,12.4-24.9,36.1-12.6,53.5c13.5,21.8,32.7,39.4,51.8,56.2 c42.7,31.7,83.5,66.1,127.5,96.1c43.8,32.2,84.5,68.4,124.2,105.5c55.4,54.2,114.8,104.8,165.2,163.9 c33.1,37.3,56.4,82.6,93.4,116.5l-0.8,1.7c11.4,11.6,22.7,24.1,38.1,30.5c21.4,25.8,48.6,47.8,79.4,61.2 c17.3-15.8,39.7-24.4,57.7-39.2c40-49.8,52.4-114.4,61.9-175.9c7.5-40.6,16-81.4,31.5-119.8c3.6-13.5,2.6-28.7,11.5-40.4 c32.2-48.2,75.3-88.3,105.5-138c13.9-23.9,17.9-51.7,21.4-78.7c3.4-30.2,8.9-60.1,15-89.9c-18.7,26.3-41.8,49.1-61,75 c-33.7,44.8-63,93-87.8,143.3c-24.4,50.8-38.8,105.5-54,159.6c-6.4,23.9-11,49.2-27.3,68.8c-5.9-25.3,0.1-50.8,6.6-75.3 c18.1-70.1,39.2-140.4,75.8-203.4c25.9-44.3,52.2-89,85.9-127.9c14.2-17.2,28.8-33.9,42.6-51.3c32-40.5,51.6-90,59.7-140.7 c5.8-42.7-8.8-91.3-46.5-115.3c-15.8-11.3-38.5-10.8-53.6,1.3c-24.9,18.5-35.3,49.2-43.7,77.8c-11,39.5-21,79.3-36,117.5 c-18.5,47.4-42.1,92.6-62.7,139.2c-17.1,41.4-30,84.3-41.6,127.5c-24.7,89.6-42.4,181.4-46.8,274.4c-2.6,28.5-1,57.3-4.7,85.7 c-9.2-103.3,5.1-207,25.5-308.2c17-74.7,38.1-148.6,68.9-218.9c18.5-42.3,40.2-83.3,54.3-127.3c15.7-42.6,22.4-87.9,39.7-129.9 c6.3-13.2,0.6-27.8,1.1-41.7c-0.9-41.9,9.8-87.5-12.1-125.9c-5.8-11.9-20.4-18-32.6-11.9c-19.5,10.6-31.6,30.6-40.5,50.3 c-5,10.3-2.6,23.7-11.5,32c-7.8,20.3-13.4,41.4-21.6,61.6c-21.5,53.6-52.2,102.9-77.3,154.8c-18.8,35.6-30.1,74.4-43.5,112.3 c-15.1,43.4-22.8,88.8-32.5,133.6c-9.5,44.5-10.7,90.1-11.8,135.5l-8,1c1.5-54.1,3.6-108.2,11-161.8 c5.8-37.5,15.4-74.2,23.2-111.2c11.3-54.6,31.5-107.2,57.7-156.4c16.9-32.7,35.7-64.6,49.3-98.9c13.6-34.4,24.4-69.8,35.3-105.1 c-2.6-14.3-9.7-27.6-17.9-39.4c-4.3-8-16.3-9.5-22.8-3.5c-13,11.9-18.3,29.3-23.4,45.6c-12.6,43.9-17.9,89.4-23.1,134.6 c-1.2,12-1.5,24.3-5.8,35.7c-6.2-45.7-4.6-92.2,0.2-137.9c4.2-34,12.7-69.3,35.3-96.1c-10.8-23.1-15.3-52.7-38.4-67.1 C1414,350.4,1390.3,367.3,1380.2,386.6z M220.4,657.9c88.2,17.3,167.6,61.7,245.7,104.3C523,794,573.9,835.1,630.1,868 c22.9,13.5,43.1,30.9,65.1,45.7c49.5,29,93.9,65.5,139.9,99.6c46.3,36.4,94.5,70.6,136.9,111.7c30.2,23.7,55.8,52.4,84.1,78.3 c70.2,68.4,134.3,142.8,195.2,219.6c41.2,55.6,74.8,116.3,113.3,173.8c28.4,42.9,52.5,88.4,75.6,134.2 c7.3-6.4,14.2-13.1,20.2-20.7c-7.1-13.1-12.4-27.1-18.3-40.8c-29-62.7-65.9-121.4-104.7-178.5c-40-56.6-78.7-114.3-122.6-168.1 c-31.4-36.9-66.9-70.2-101.7-103.8c-53.7-50.4-106.2-102.5-165-147c-45.1-38-92.3-73.5-139.7-108.7c-35.4-27.7-74-51-108.2-80.1 c-15.9-12.7-33.2-23.6-48.7-36.7c-23.9-20.4-54-30.9-79.4-48.7c-29.3-20.9-61.8-36.5-93.9-52.4c-39.2-18.2-77.6-38.9-119.5-50.1 c-32.1-18.1-67-30.8-98.7-49.7C246.5,649,233.3,653.1,220.4,657.9z M1927.6,1023.6c-10.6,17.2-24.3,32.4-40.2,44.9 c-25.3,19.5-55.9,29.8-83.4,45.5c21.6-17.7,46.7-30,69.6-45.8c24.1-16.6,37-43.7,51.2-68.3c-27.3-3.5-55.9-6.6-82.2,3.3 c-31.5,11-54.9,36.6-74.5,62.5c-27.6,36.2-43.5,79.4-63,120.1c-13.5,28-35.4,56.3-68.2,61c11.1-8.8,23-16.8,32.1-27.8 c26.7-31.1,37.2-71.9,53.6-108.6c-28.2,8.2-57.7,19.2-76.3,43.1c-34,37.3-44.8,87.8-56.7,135.3c-10.1,44.1-15,89.6-30.7,132.2 c-6.2,17.2-15.3,33.3-23.6,49.6c18.6-14.2,33-32.9,47.6-51c48.6-61,80.7-132.9,123.2-198c13.9-18.6,28.7-38.9,51-47.7 c-1.8,6.5-4.9,12.5-9.8,17.2c-35.5,35.7-52.9,83.9-78,126.6c-19.8,32.8-37.2,67.7-44.7,105.5c-3.3,14.5,0.6,29.2,4.1,43.3 c29.4-58.9,56.8-119.2,91.8-175.1c33.7-48.1,66.6-97.5,108.5-139c8-8.6,15.5-18.5,27.2-22.2c-6.8,14.5-19.9,24.5-28.4,37.8 c-18.5,28.5-40.6,54.3-58.7,83.1c-44.2,63.7-76,134.8-105.9,206.1c12.6-10.1,25.7-20.2,35.5-33.2 c63.9-94.1,144.4-175.6,231-248.8c3.3-4.9,6.6-1.7,9.9,1.2c-50.1,50.1-99.9,100.4-145.6,154.5c-33.8,37.6-65.1,78.1-88.7,123 c47.1-41.1,102.4-73.1,162.4-91c49.2-14.4,98.7-28.7,149.6-35.7c92.3-7.7,184.4,5.9,275.7,17.5c5.5-4.2,11.1-8.4,16.8-12.4 c-1.8-25.6-4-51.2-1.7-76.9c3.1-41.2-20.4-77.8-44.6-109c-29.6-33.6-70.3-57.2-113.5-68.4c-50.7-8.3-94.2,24.5-133.2,51.8 c15.6-36.7,56.3-50.4,89.9-65.4c-7.5-9.5-14.3-19.9-17.3-31.7c-7.8-25.2-3.8-54.5-21-76.3c-14.2-14-36.8-13.6-54.6-8 C1976.3,960.3,1948.2,991,1927.6,1023.6z M723.6,964.9c-9.2,35.3,6.6,73.1,33.4,96.4c32.3,32.6,71.2,57.4,107.3,85.5 c11.9,9.6,27.3,13.2,39.1,22.9c-53-14.1-95.2-50.7-139.9-80.6c-21.1-14.1-36.7-36-60.7-45.8c-25.4-11.1-58.4-13.6-80.9,5.1 c-15.3,13.2-12.7,36.8-2.9,52.5c16.7,30.8,49.5,46.8,80,60.7c32.9,14.4,63.3,36.5,83.2,66.8c10.7,16.1,13.4,35.6,20.7,53.2 c-6.7-7.9-13.8-15.5-21.6-22.4c-18.8-16.7-32.9-38.3-53.6-52.8c-22.1-15.6-47.1-26.3-71.8-37c0,28.1,14.1,53.6,16.2,81.4 c2.1,22.8-5.3,46.1-19.6,63.8c-6.3,9.5-16.8,18.1-15.4,30.7c-0.5,15.6,14.4,25.7,27.3,30.9c35,12.3,71.7,19.6,108.5,24.1 c95.9,16.2,190.8,38.3,284.1,66.1c79.2,23.6,153.8,59.9,225.1,101.2c-7.7-51.5-33.2-97.8-60.3-141.3 c-29.1-54.1-74.4-96.6-113.3-143.3c-38.1-40.3-75.2-81.7-117.2-118.1c-67.5-70.3-146.2-128.2-223.9-186.6 C755.1,968.3,739.5,963.7,723.6,964.9z M1757.7,1441.5c66.1-14.4,134.9-7,200.1,8.5c21,7.3,41.4,16.6,61.3,26.6 c6.1,2.5,10.1,7.5,13.1,13.2c-76.1-32.2-161.1-46.5-243.2-34.1c-25.7,5.7-53.9,8.6-75.1,25.6c17.2-1.8,34-6.3,51.3-7.9 c34.4-3.8,68.6,2.9,102.5,7.7c16.9,2.2,33.2,7.7,47.9,16.2c-53-1.1-106.6-12.9-159.4-2.7c-24.1,6.1-47.4,14.9-70,25.1 c58.8-8,121.8-11.3,177.2,13.7c24.9,10.5,33,39.7,34.7,64.3c17.4-12.2,41.4-21.6,59.9-5.9c14.5-19,34.8-36.3,59.7-38.2 c21.6-1.5,40.8,14.6,48.1,34.2c8,20.7,20.3,39.3,31.8,58.1c12.2,20.1,12.4,44.4,12.1,67.2c-1.6,12.2,9.7,21,20.1,24.6 c20.1,5,39.4-9.1,49.8-25.2c15.7-25.2,14.8-57.6,5.3-84.8c-11.1-35.4-40.5-60.1-61-89.8c-19.6-19.1-48.2-18.7-73.1-24.7 c26.7-6.2,55.7-2.6,79.9,10.3c31.7,15.3,54.9,43,74.2,71.6c8.3,11,19.3,25.3,34.9,22.5c23.1-5.2,40.5-26.8,44.5-49.6 c-1.8-25.4-9.4-51.7-0.4-76.6c10-31.6,40.6-55.1,40.7-90c2-22.5-14.2-43.3-32.7-53.4c-79.6-7.3-159.7-14.6-239.7-11.2 C1948.9,1351.4,1843.7,1379.6,1757.7,1441.5z M465.3,1439.2c-22.6,7.7-46.1,18.3-60.5,38.2c-9.6,13.1-10.2,33.6,2.2,45.3 c19.7,19.3,47.7,27.3,74.4,30.4c51.3,7.5,103.2,4.2,154.7,3.3c50-1.1,99.6-6.8,149.2-12.9c17.4-2.5,34.5-8.3,52.4-6.9 c-7.4,7.4-17.6,10.3-27.4,13c-29.1,7.4-58.4,15-88.4,17.8c-61.1,6-122.4,12.2-184,10.7c-37.6,0.5-75.3-4.1-111.4-14.3 c-24.1-6.2-49-16.4-74.2-10.3c-17.2,5.3-38.1,14.9-39.8,35.5c-1.2,13.6,13.1,21.2,24.5,23.7c32.4,8.5,64.5-6.5,97.1-4.5 c-21,18.2-49.3,22-76,24c-17.1,1.2-35.2-3.7-51.4,3.8c-10.3,4.1-20.8,13.6-18.7,25.8c6.8,14.7,24,20.3,37.6,26.9 c61,8,121.3-9.3,181.9-14c26.6-1.2,52.4-9.4,79.1-10c-5.9,7.4-15.2,9.8-24,12c-47.8,11-96.3,17.8-144.6,26.1 c-29.8,3.8-59.8,10.7-89.9,6.2c-49.7-8.1-105.5,0.9-144,35.3c-17,15.2-34.9,34.6-34.6,58.8c0.3,21,18.4,36.2,36.4,43.4 c42.4,17.8,89.9,7.5,133.9,2.1c90.7-10.3,178.8-35.6,269.3-47c31.4-4.5,61.8-15.7,93.7-16.6c-21,10.6-44.6,13.6-67.1,19.6 c-81.3,19.8-162.8,38.8-245.1,53.8c-48.9,11.6-99.2,16.8-149.3,19.8c-14.6,3-29.9,15.7-29.3,31.8c0.4,13.7,13.2,22.8,24.9,27.3 c22.6,2.3,44-7.7,65.3-14c-19.5,15.4-43.1,26.1-68.1,27.5c-7.9,14.6-11.2,33.3-0.5,47.5c20.2,29.9,61.2,34.3,94.1,28.6 c42.5-9.2,81.4-29.7,120-48.9c1.7,0.7,5,2.1,6.7,2.7c-26.7,19.4-57,33.2-86.8,47.2c-23.9,10.7-49.3,18.7-75.6,20 c-18.4,1.6-39,16.7-37.5,36.9c-0.3,27.4,19.4,50.1,19.9,77.5c3.2,19.3-3.1,42.2,11.1,58.2c13.5,14.5,35.5,19.1,54.3,13.7 c25.1-7,47.6-21.6,65.9-40c16.9-17.2,35.1-33.4,48.8-53.4c45.6-67.6,109-121.2,176.6-165.8c64-41.8,130.6-79.8,199.2-113.5 c61.8-30.5,127.6-51.5,193.5-71.1c56.2-14.6,111.9-31.6,169-42.6c6.5-0.3,14.2-5,20.2-1.1c6.5,2.7-2.8,8-5.6,7 c-27,6.1-53.5,13.6-80.4,20.1c-52.6,12.9-103.2,32.3-154.9,48.4c-115.3,36.7-221.5,96.5-322.4,162.4 c-47.5,29.6-90.9,65.5-130.3,105.1c-40,43.2-72.1,93.4-97,146.7c-15.3,32-20.5,67.6-17.5,102.8c8.9,5.1,17.2,11.4,26.4,16 c10.3,3.1,21.2,3.6,31.9,4.1c42.6-1.9,85-12.5,123.2-31.5c45.1-27.6,91.2-57.7,120.6-102.8c-1.9,7.4-4.7,14.7-9.9,20.5 c-22.3,26.4-51.1,46.1-77.5,68.2c-25.7,18.7-53.1,36.9-84.6,43.7c-29.6,7.3-58.5,17.9-89.2,19.3c7.5,13.4,14.3,27.3,17.3,42.5 c3.3,16.5,11.6,35.8,30.1,39.3c32.8,5.9,63.4-10.8,91.8-24.9c30.5-15.5,55.9-38.7,83.6-58.4c-43.9,45.1-99,78.3-157.8,100 c20.2,11.1,29,39.8,55.1,39.2c26.1-0.6,47.8-17.4,67.6-32.5c38-31.5,78.5-61.3,108.6-101c17.5-23.9,35.4-47.5,54.2-70.3 c-16.1,26.5-31.4,53.6-50.1,78.5c-24.6,33.6-58,59.1-88,87.5c-29.1,25.5-61.7,56.8-103.9,51c5.8,8.9,11,18.2,16.7,27.3 c8.4,13.9,22.8,23.4,30.2,38.1c8.3,16.4,7.5,35.4,13.8,52.5c16.3-5.9,29.8-16.9,41.2-29.6c26.1-29,46.8-62.5,66.1-96.3 c21.1-38.5,46.1-74.6,66.4-113.5c22.5-42.6,50.3-82.6,84.5-116.6c0.3,4.9-1.2,9.1-4.5,12.5c-34,37.2-53.5,84.3-77.8,127.7 c-23.9,40.6-41.9,84.5-68.5,123.6c-20.2,30.5-39.4,62.2-66.1,87.6c17.9-0.9,37.2-0.7,52.8-11c10.1-7.2,18.6-16.6,29.6-22.5 c2.6,13.6-6.1,24.5-13.8,34.5c6.3,7.5,16,15.2,26,8.9c26.2-15.3,33.3-47.7,41-74.7c11.3-39.7,19.9-80.3,36.7-118.2 c18.5-42.3,36.4-85.9,66.8-121.3c-3.8-29.7-17.8-58.4-13.1-88.9c1.5-15.8,10.2-29.3,16.8-43.3c-9.2-7.4-20.9-12.6-26.6-23.5 c-7.1-12.3-7.1-26.8-8.5-40.5c-9.1,17.1-15.5,35.5-26.3,51.6c13.7-37.9,33.9-73.1,51.2-109.5c7.6-17.8,26-32.4,22.5-53.4 c-3.3-28.6,3.3-58.4,23.4-79.8c-39,34.8-77.7,70.6-109.1,112.6c-23.7,29-46.3,59.1-71,87.4c-6.4,6.7-11.3,17.5-22.2,16.6 c19.7-29.7,45-55.3,64.9-84.9c48.3-76.6,117.6-136.6,184.9-195.9c13.3-18.1,21.7-40.6,40.9-53.9c40.6-29.1,91.8-46.4,142-39.4 c10.9,1.5,22,3.8,32.7-0.1c-0.4,1.9-1.2,5.8-1.7,7.7c23.4,2.8,38.9-21.5,62.2-20.1c9.5-10.6,18.6-21.5,27.7-32.4 c-18-1.2-36.1-2.4-54.1-0.1c-5.5,1.2-11.1-0.7-13.8-5.8l0.7,8l-10.6-5.7c-81.8-10.2-164.3-17.6-244.8-36.3 c-94.3-17.6-189.5,3.9-283,16.7c-34.1,3.8-67.4,14.4-102,13.8c-17.5-0.5-35.6,4.4-52.7-1c20.3-1.6,40.7-1.2,61-3 c46.8-2.8,91-20.3,137.5-25c59.6-9.4,119.1-22.5,179.7-22.6c56.5,1,110.5,20.8,166.8,24.2c43.8,3.5,87.4,7.7,130.9,13.8 c34.4,8,69.6,2.1,104.4,4.1c-46.5-26.9-90-59.5-139.2-81.5c-28.5-9-57.8-15.4-87.1-20.8c-66.6-10.7-134.2-18.9-201.6-12.2 c-67,6.9-136.6,13.8-202.1-6c21.9,2.5,43.5,7.2,65.5,8.7c70.2,6.1,139.5-12.4,209.7-9.4c60.9,1.5,120.9,12.7,180.8,22.7 c18.4,3.5,36.1,9.5,54.2,14c32.5,8.3,58.5,30.7,89.1,43.2c17,7.6,33.7,15.9,51.5,21.6c-34.7-30.5-64.5-66.1-100.2-95.5 c-49.1-38.5-110.5-56.3-169.4-74C976.9,1523,916,1505,853,1500.9c-26.7-2.4-53.3-6.2-80.1-7c-5.6,0.5-10.1-2.6-14.7-5.1 c-2.7-0.4-8-1.1-10.7-1.5c12.9-1,25.8,0.2,38.1,4.1c54.9,5.9,110.6,5.5,164.8,17.1c38.1,8.8,75.9,19,113.7,28.9 c40.1,9.6,79.4,23.4,116.1,42.4c50,25.2,88.4,66.9,130.8,102.5c-9.4-29.2-17.3-60.6-39.4-83.2c-38.9-41.1-90.7-67.6-142.8-88 c-88.4-38-183.3-57.1-277-77.2C725,1407.6,590.1,1398.7,465.3,1439.2z M1699.8,1540.2c30,7.2,59.5,16.6,87.1,30.6 c10.8-14.8,24.6-27,40.2-36.4C1784.8,1529.1,1741.2,1529.5,1699.8,1540.2z M1558.8,1596.1c7.5,2.4,15.1,4.7,22.8,6.9 c24.3-5.9,49.5-8.1,73-17.3c22.2-8.9,48.2-13.2,70.9-3.4c15,6.3,25.2,19.6,33.8,32.8c5.3-10.7,11.3-21,17.9-31 c-44.2-18.8-92.7-19-139.9-19.2C1610.5,1573.2,1584,1583.4,1558.8,1596.1z M1832.9,1579.3c-17.5,18.2-34.1,37.4-48.2,58.3 c-20.5,34.7-29.5,74.4-42.8,112.1c-14.9,46.2-18.9,95-22.2,143.1c-7.7,94.2-30.8,186.7-63.3,275.3 c-23,62.4-50.7,123.5-87.9,178.7c6.5-19.6,18.1-37,26.7-55.8c36.1-70.8,62.1-146.4,81.7-223.3c12.2-47.6,23.4-95.7,26.9-144.9 c4.1-51.4,6.1-103.4,18.1-153.8c7.1-37.2,22.4-73.5,20.5-111.9c-0.9-19.9-11.3-42.5-32.6-46.9c-34.1-5.4-67,15.5-85,43.3 c-17.8,27.7-24.4,60.9-28.2,93.2c-4.6,40.8,5.4,80.9,12.7,120.6c8.6,43.5,9.1,88,9.8,132.2c0.9,61-12.9,120.9-28.2,179.6 c-6.2,21.7-11.3,45.3-28.5,61.4c-2.7-31.3,10.5-60.6,16.3-90.8c16.9-64.1,25.5-130.7,19.9-196.9c-0.8-48.4-10.3-96-20.4-143.1 c-7.1,23.1-15.2,46-24.5,68.4c-8.4,21.1-17.6,42.7-18.3,65.8c-0.6,55,19.9,107.9,20.7,162.7c-10.4,29.2-12.7,60.5-22.4,90 c-17.5,60.3-48.3,119.1-42.8,183.7c-0.9,19.9,13.5,34.7,21.1,51.8c3,5.7,5,12.3,9.6,17.2c25.6,3,51.6-2.6,76.1-9.5 c18.1-2.2,37-3.8,53.3-12.9c40.3-9.5,75.3-32.9,114.3-46.3c71.1-25.8,145.4-40.4,218.4-59.5c72.8-19.1,148-23.4,221.9-35.6 c31.3-3.7,63.2-9.3,91.5-24c15.8-7.5,22.1-31.1,12.2-45.3c-18.6-4-35.3,8.3-52.1,14.2c2.4-24.7,20.8-42.4,30.1-64.3 c10-22.3,19.1-47.3,13.4-71.9c-3.2-13.7-18.2-19.1-30.8-18.5c-23.7,0.9-46.9,6.3-70.5,8.3c-36.4,4.2-73.2,2.4-109.4,7.4 c-66,7.3-132.6,30.4-181.3,77c-44.1,37.4-80,82.9-117.7,126.3c-45.6,48.9-92.7,98.4-151.5,131.4c-4.4-0.6-8.8-1.3-13.2-1.8 c19.2-11,37-24.2,53.6-38.8c40.3-35.4,78.5-73.4,112.8-114.7c44.8-55.5,92.4-110.7,152.9-149.8c22.3-15.1,48.9-21.9,71.7-36.2 c36.1-26.1,60-66.7,68.2-110.3c6.3-24,2.6-48.8,5.7-73.1c0.6-35.7-5.9-71.1-6.1-106.9c-0.6-41.5,8.7-83.2,0.6-124.4 c-3.7-12.1-10.7-22.9-15.9-34.4c-14.5,49.2-51.6,88-63.9,137.9c-5.3,18.2-2,37.2-2.7,55.9c-7.2-26.5-9.2-55.2-1.2-81.7 c9-31.8,29.2-58.6,42.7-88.4c9.2-20,13.7-43.7,5.4-64.7c-5.4-14.2-21.6-24.9-36.7-19.4c-18,6.2-31.1,20.9-46.4,31.7 c4.7,37.9-8,75-24.1,108.7c-14.2,29.2-29.9,57.8-49.3,83.9c11.4-39.7,34.2-75.6,42.3-116.4c3.5-18.4,8.5-37.3,5.3-56.1 c-0.8-9-11.4-15.8-19.4-10.4c-15.8,10.1-25,27.9-31,45.2c-11.9,44.4-16,90.5-16,136.3c-0.1,53.6-6,107.7-22.2,159 c-11.9,38.4-21.7,77.5-37.5,114.5c-23.7,55.5-52.6,108.6-81.4,161.6c-25,45.3-50.3,91.1-84,130.7c34.6-54.9,69.2-110,97.8-168.4 c17.8-36.6,38.2-72.1,52.1-110.5c17.4-51.7,34.2-103.8,42.4-157.9c18.1-80.1,5.4-163,20-243.6c1.8-35.2,4.5-70.7-0.2-105.7 C1857.9,1564.4,1840,1572.6,1832.9,1579.3z M1518.6,1654.7c-20.7,23.1-21.2,58-43.9,79.7c-29.3,26-67.1,45.1-107,44.2 c7.7,5.4,15.4,13,25.6,12.7c23.1-0.7,45.2-9.5,68.4-9c21.8-1.3,42.7,6,64.1,8.3c11.9,1.7,23.6-9.8,22.5-21.7 c0.3-18.8,0.9-37.8-2.7-56.4c-5-29.4,2.2-59.3,14.5-86C1544.8,1633.2,1529.3,1641.3,1518.6,1654.7z M1222.1,1819.4 c17,26.3,42.4,52.1,39.2,85.9c-15.4-26.8-26.3-57.6-51.2-77.6c-20.5-20.1-50.7-22.2-77.8-23.1c-44.1-1.3-87.6,15.4-121.1,43.8 c-12.9,10.6-21,25.5-28,40.3c-7.6,16.6-18.7,31.3-28.5,46.6c3.6,6.4,6.8,13,10.6,19.5c-18.1-0.5-38.7,5-48.3,21.8 c-21,32.9,2.9,74.7-16.3,108.3c-8.1,19.4-30.9,32.5-28.7,55.7c-0.7,15.2,5.3,31.4,17.9,40.6c11.2,4.8,23.7,0.2,34.1-4.7 c22.4-11,46.1-21.3,71.4-21.9c28-2.1,57.8,6.1,77.9,26.5c-20.9-8-42.1-17.3-65.1-13.9c-39.6,0-68.2,33.2-106.8,37.5 c-11.5,11.8-22.7,25.5-24.4,42.5c-5.7,36.8,15.8,70.8,14.1,107.5c0.7,32.3-10.2,69.2,10.7,97.4c16.3,21.1,45,20.5,68.8,25.2 c-11.1,5.3-23.5,5-35.4,5.2c4.4,12.1,8.3,25.1,17.3,34.9c16.3,18.4,39.7,28.3,56.3,46.5c5.3-17,12.7-33.5,24.1-47.2 c26.4-35.3,68.6-53.2,108.8-67.5c-36.7,21.8-75.5,43.6-101.2,78.9c-12.4,17.8-24.3,40.6-15.4,62.4c2.8,11.3,13.2,22.4,25.8,19.1 c29.2-5.4,59.1-8.3,87.7-16.8c27.6-8.3,40-36.5,51.7-60.2c14-31,37.9-58.3,69.2-72.6c48.1-22.7,107.5-27.6,154.9-0.3 c-13.1-21.3-29.5-40.2-45.6-59.1c-8.8-10.7-22.9-14.1-34.3-21c-31.4-18.4-67.2-30.2-103.8-30.9c-59.7,1-118.3,19.5-169.8,49.2 c-20.5,10.4-37.6,26.3-57.6,37.4c2.5-4.6,4.9-9.5,9.1-12.8c52.6-43.5,118-67.5,183.7-82.7c43.3-7.6,88-3.6,129.8,9.9 c-19.4-20.1-43.8-34.4-68.2-47.4c-16.8-9.1-36.5-13-50.9-26.1c50.7,2.1,94,32.2,134.7,59.5c-11.3-16.2-24.1-31.4-38.7-44.7 c-35-30.1-80.5-42.7-119.8-65.5c29.6,0.2,56.3,14.5,83.3,24.8c27.9,11,51.3,30,74.1,48.9c-8.8-21.9-28.7-36.1-45.7-51.2 c-42.8-33.2-93.2-55.8-145.8-68.2c-17-6.6-36.3-3.9-52.7-11.6c24.8-3.1,50,0.1,74.5,4.4c54.6,14.8,106.9,39.2,151.1,74.8 c-31-70.8-86.7-127.4-144.9-176.7c-37.3-34-84.1-54.2-128.5-77c-26-13.5-53.3-24.1-79.5-36.9c11.6,1.6,22.6,5.7,33.4,10.4 c51.1,21.7,102.8,42.6,150.2,71.8c41.7,23.8,75.2,59,109.1,92.4c43,42.1,78.7,93.5,95.8,151.7c2.7-29.8-1.2-59.7-5.3-89.2 c-10.4-56.1-22.9-111.9-37.8-167c-5.1-18.4-12.3-36.6-13.3-55.8c4.4,3.7,7.6,8.3,9.4,13.9c32.4,88.8,57.4,180.9,65.4,275.4 c1.6,14.8,7.7,28.6,13,42.4c6.5-59.5,12.8-119.4,9-179.3c-3.4-49.9-9.5-99.6-16.9-149c1.6,2.1,4.8,6.2,6.4,8.3 c17.7,55.3,23,113.4,28.4,170.9c2.8,56.9-2.7,113.7-4.9,170.5c9.5-10.3,18.9-21.5,22.6-35.4c15.5-50.9,7-104.5,11-156.8 c2.5-28.1-5.6-55.2-7.9-82.9c13.7,13.8,15.8,34.3,18.9,52.6c7.5,88.5-6.5,180.5,24,265.8c-2.5-51.5,15.6-100.3,32-148.2 c12.7-44.9,29.1-91.8,18.3-138.8c-4-25.9-21.6-46.4-39.2-64.6c-2.7,25.8-7.1,51.4-8.2,77.3c-0.9,21.3,6.5,41.5,13.6,61.2 c-11.1-10.7-19.4-24.3-22-39.5c-6-34.1,2.9-68.3,3.3-102.5c1.2-37.8-2.4-77.3-19.9-111.4c-14.8-28-44.2-42.5-72.1-54.1 c0.8,21-1.5,42.8,5.6,63.1c9.4,26.9,28.4,49.2,36.7,76.5c-18.6-34.3-48.2-64.3-52.7-104.8c-2.7-35-5.3-72.6-27.6-101.6 c-11.3-17.1-31.7-29.9-52.7-25.9C1264.7,1769.5,1255.5,1808.7,1222.1,1819.4z M1380.7,1813.7c0.6,5.6,1.2,11.3,1.8,17.1 c30.4,7.8,59.8,24,79.2,49.2c12.7,16,16.8,36.7,26.7,54.3c9.1,15.8,14,33.6,22.8,49.6c1.1-20.4,1.1-41,6.6-60.8 c7.5-32.8,25.7-61.5,40.8-91.2C1501.7,1813.2,1440.3,1799.8,1380.7,1813.7z M916.7,1949.1c9-4.7,24.4-5.9,23.1-19.6 C931.3,1934.9,923.6,1941.7,916.7,1949.1z M889.2,2065.4c-5.8,3.1-10.7,11.9-7.9,18.2C888.7,2085,895.7,2069,889.2,2065.4z M2404.5,2271.8c-37.6,4.7-75,11.6-112.8,15c-88.6,9.5-176.6,23.1-264.1,39.5c-61.9,13.7-123.3,29.7-184.7,45.9 c-71.3,18.4-136.6,52.9-203,83.9c-72.2,35-143.7,73.1-205.9,124.2c1.9,7.4,3.9,14.8,5.9,22.2c17.5-9.1,32.9-21.5,49.8-31.4 c39.9-25.6,82.9-45.9,124.4-68.7c42.7-23.8,85.7-47.5,131.8-64.2c142.2-56.9,291.2-97.8,443.2-117.6 c49.8-6.3,99.4-15.4,149.7-16.9c24.3-1,48.2-6.5,72.5-7.1c64.2-1.1,128-12.7,192.3-10.2c70.2,1.3,141.9,3,209.3,25.2 c-8.2-8.9-16.5-17.5-24.9-26c-32.3,0.3-64.3-3.9-96.6-4.8c-25.8-6.5-52.3-8.2-78.7-10.4c-40-2.4-80.1-5.9-120.1-2.6 C2463.3,2270.3,2433.6,2265.7,2404.5,2271.8z M2022,2366c-69.9,15.8-138,38.6-205.4,62.7c-25.8,10.1-52.7,18.4-76.1,33.8 c-41.2,22.5-82.1,47.6-112.2,84.3c68.7,0,137.8,3.1,205.1,17.8c69.4,15.4,137.9,34.5,205.3,56.9c47.3,14.5,92.2,38,141.9,43.4 c13.7,1.8,29.2-7,30.6-21.6c-0.6-17.9-6.3-36-0.3-53.6c7.9-32.9,40.6-49.7,57.2-77.2c-33.4-3.4-68.6-7.4-100.7,4.7 c-18.4,7.1-38,10.4-56.5,17.2c15.3-14.2,29.9-30.4,50.4-37c34.6-14.5,72.5-8.8,108.8-7.6c25.3,0.4,53.3-6.4,70-26.6 c11.7-14.5,5.2-35.4-8-46.4c-21.1-18.4-51.9-23.9-78.6-16.3c-30.1,7.8-61.3,7.8-91.9,11.9c-26.9,1.5-54.8,2.9-80.9-4.8 c16-0.3,32.2,1.2,48.2-1.3c38.2-5.7,77-8.3,114.1-19.3c28.7-7.3,54.4-29.6,61-59.1c-14.8-6.8-31.2-8.1-47.1-5.4 C2178.1,2333.3,2098.5,2343.1,2022,2366z M1343.1,2338.5 M843.5,2412.1c-11.8,29.7-27.3,58.1-35.2,89.3 c-7.4,29.6-15.3,59-22.7,88.5c-8.8,36.4-32.5,69-32.6,107.5c1.9,23.6,21.3,39.6,36.8,55.3c10.4,9.5,22.8,23,38.5,17.7 c18.7-7.7,29.3-26.9,36.3-44.8c15.1-45.1,17.2-93,24.3-139.6c7.4-37,12.1-74.3,20.1-111.1c-11.5-8-21.8-18.4-26.4-32 c-12.4-31.6-2-65.8-5.3-98.6C861.4,2364.2,853.5,2388.8,843.5,2412.1z M1298.8,2456c-36.1,8.2-70,30.4-86.7,64.2 c-17.9,31.7-27.2,75-65.8,88.3c4.2,4.8,8.5,9.7,12.7,14.5c64-11.4,128.7-33,178.6-76.2c22-21.8,38.2-54.3,30.9-85.7 C1349.2,2445,1321.2,2449.9,1298.8,2456z M1395.1,2469.2c-1.8,27-8.8,54.6-26.1,75.9c-26.2,31.5-64.7,48.7-101.5,64.6 c53.7,1.6,107.5,14.6,154.5,41c52.8,29.8,87.8,85.9,97.2,145.3c6.6,44.1,9.1,89.6-0.3,133.4c-7,29.5-17.8,58-29.3,86 c-8.9,23-18.6,46.5-19,71.6c22.6-39.6,46-79.2,61.6-122.3c21.1-53.5,33.8-112.9,19.8-169.9c-5.8-31.8-23.4-59.2-35.3-88.7 c-6.2-14-16.8-25.5-26.9-36.7c-17-19.3-43.4-27.6-58.2-49c-6.5-10-13.5-19.6-18.7-30.3c-5.3-21.8,1.3-43.7,7.4-64.5 C1427.5,2503.1,1411.6,2482.4,1395.1,2469.2z M919.2,2476.8c-8.9,42.5-16.7,85.4-19.4,128.9c30.5-6.9,43.7-38.7,49.9-66.2 C932.9,2522.2,924.4,2499.8,919.2,2476.8z M1628.4,2573.4c-27.6,7-48.8,27.2-68.5,46.6c41.6-6.1,81.9-20.4,124.2-20.7 c40.5-1,80.9,5.9,119.7,16.6c36.9,9.9,74.2,18.8,110.5,30.6c46.1,15.6,88,40.8,133.3,58.2c-41.5-10.6-78.1-34.8-119.1-47.2 c-67.4-20.3-135.6-39.8-205.9-46.6c-58.2-6.2-113.5,17-168.6,31.9c28.9,4.9,58.2,6.8,87.5,6c29.1-1.1,57.2,7.8,84.9,15.4 c43.3,15.5,86.9,30.2,128.4,50.3c49.1,21,90.1,55.9,134.8,84.4c28.9,18.6,60.9,31.3,93.2,42.6c-89.2-18.2-152.2-90.9-234.2-125.3 c-48.9-21.5-98.9-41.5-151.3-52.3c-45.9-5-92.1,1.3-138,2.7c21.6,11.3,41.4,26,64,35.3c48.3,17.2,94.4,39.7,141.4,60.1 c45.9,17.3,95.4,27.6,135.9,56.6c42.2,27,78.7,61.3,118.8,91.1c26.3,22.1,50,47.5,78.9,66.5c14.1,9.9,30.2,16.7,43.7,27.5 c-39.3-15.6-71.7-43.5-104-70.1c-66.9-49.8-129.8-108.7-209.7-137c-70.4-20.9-137.8-50.1-205.4-78.6 c46.3,41,90.7,84.3,134.2,128.3c32.6,34.6,65.2,69.5,92.7,108.4c27.9,38.5,52.5,79.3,76.7,120.2c41.9,71.2,79.3,147,93.1,229.1 c3.6,25.4,5,51.3,13.1,75.8c7,28.9,17.9,58.4,40.9,78.5c15.1,13.2,41.7,17.5,56.3,1.4c12.9-15.7,19.9-36.1,36.4-48.9 c14.5-12.9,34.7-24.9,36-46.4c-2.4-26.9-31.3-34.7-46.3-53c-25.8-29-48-61.5-65.1-96.3c10.7,2.1,13.6,14.2,20,21.6 c23.7,32.3,46.9,69.2,85.3,85.5c21.6,9.4,52.4,10.1,67.4-11.1c4.8-8.8,10.7-23.6-0.8-29.4c-13.9-11-24.9-25.6-31.1-42.1 c12.4,12.1,23.1,26.7,38.9,34.8c14.7,6.3,38.3-2.6,36.3-21.3c-0.3-20.9-21-29.9-35.9-39.6c-42.4-28-79.9-62.4-118.7-95 c-55.9-49.8-112-99.5-165.2-152.2c5.5,1.7,10.9,3.7,15.1,7.8c18.4,15.5,35.7,32.4,54.8,47c56.1,41.5,105.4,91.5,161.6,133 c30.3,23,60,48.2,95.9,62.2c20.5,6.1,47.7,9.1,63.4-8.9c14.8-19.1,8.4-45.4,0.7-66.1c-12.1-33.9-40.6-58.8-71.4-75.6 c-16.3-7.7-33.8-13.2-48.6-23.7c-32.5-22.7-62.3-48.8-93.6-73c-19.7-18.4-43.8-32.9-57.8-56.6c20.5,10.8,36.4,28.2,55.9,40.7 c41,27.2,77,62,121.2,84.3c12.5,7.3,27.6,6.2,41.5,5.2c8.3,0.1,15.4-8,14.2-16.1c-1.7-14.4-13.9-24.6-26.1-30.6 c-25.8-13.6-53.2-30.5-64.4-58.9c23.7,10.5,40,32.5,64.5,41.5c10.5,4.1,25.3,7.3,33.5-2.9c7.6-13,1.5-29-7.8-39.3 c-14.3-19.6-39.7-23.7-61.6-29.2c-66.1-15.2-123.8-53-179.7-89.8c-44.5-30-90.3-60.7-123.4-103.7c12.9,2.1,21.4,12.6,31.1,20.3 c58.4,45.8,121.9,84.8,186.8,120.8c33.4,15.7,68.8,35.9,107.1,30c18.2-1.5,30.3-20.9,26.3-38.2c-5.7-28.4-27.3-49.4-46.9-69.1 c-77.8-74.8-178.3-120.6-280.3-152.2c-61.7-19.3-123.9-38-187.5-50.1C1751.5,2566.2,1688.4,2556.8,1628.4,2573.4z M1174.8,2641.1 c-11,5.8-10.6,19.3-11.6,30c17.5-12.1,36.2-23.3,57.3-27.6c64.6-15.2,135.7-1.6,190.5,35.9c26.4,17.7,49.6,46.3,50.4,79.2 c-12.4-10.7-13.9-28.8-26-39.9c-21.3-26.7-53.2-41.4-84.7-51.9c-31.7-8.6-67.9-7.4-96.2,10.7c-12.6,7.5-21.7,21.9-20.1,36.9 c1.9,22.2,23.6,33.1,36.7,48.5c20.4,19.9,54.5,8.3,73.4,29.7c-39.6-2.7-79.8-0.3-118.7-9.5c11,9.6,24,17.8,38.9,19.3 c22.8,2.1,45.7-3.6,68.5-0.2c16.3,1.9,31.1,9.8,45.6,16.9c-13.3-22-32-41.9-56.5-51c-13.1-5.2-27.5-3.2-41.2-3.9 c22.5-11,49.2-3.9,67.9,11.2c40,30.9,63.3,77.6,82.1,123.3c12.2,30.2,31.2,57.1,50.6,83.1c18.8-40.8,30.4-85.6,27.7-130.8 c-2.9-45.5-10.1-92.9-35.7-131.6c-21.5-35-57.8-57.9-95.7-71.8c-36.4-12.9-74.5-21-112.9-25.3 C1234.1,2618.6,1201.8,2625.1,1174.8,2641.1z M1098.3,2692.2c16.5-2.7,33-4.8,49.7-6.2c-4.2-13.4-11.1-25.7-19.6-36.8 C1120.7,2665,1109.1,2678.4,1098.3,2692.2z M1507.9,2672.1c7.3,9.8,15.3,19,24.3,27.3c13.8,12.9,21.7,30.5,28.6,47.8 c9.2,24.9,26.9,45.4,38.3,69.2c14.5,29.6,25.6,61.3,30.4,94c5,31.4,10.3,62.9,9.9,94.8c0.4,53.1-13.6,105.1-13.7,158.2 c-1.2,26,1.3,51.9,1.1,77.9c-3.2-30.2-8.8-60.2-8.1-90.6c0.7-54.5,11.7-108.4,9.1-163c-3.2-54.6-13.8-110.3-40.6-158.5 c9.3,35.1,15.7,71,17.5,107.3c1.9,102.4-31.4,201.5-30.5,303.9c-6.9-22.2-6.8-45.7-5.7-68.7c3.9-50.2,14.2-99.6,18.4-149.7 c6.8-51.8,4.7-104.8-8.1-155.4c-7.9,61.1-31.8,119.1-61.2,172.8c-16.1,31.1-36.7,59.7-50.6,91.8c-26,33.9-37.6,76.7-42.9,118.5 c-5.7,57.5-4.7,119.7,26.8,170.3c35.2-81,61.3-165.6,97.8-246c-1,21.8-12.6,41.2-18.5,61.9c-19.8,60-42.6,118.9-61.3,179.2 c-7.1,24-12.7,55.4,8.9,73.8c19.9-40.1,32.1-83.2,47.4-125c5.9-15.2,9.7-32.3,22.2-43.7c-23.4,71.8-45.6,144.2-75.3,213.7 c-10.3,29.2-24.2,59.7-18.7,91.5c1.8,12.6,11.3,26.7,25.6,24.7c19.1-2.3,38.1-7.6,55.5-15.9c21.5-11.5,24.2-38.1,28.1-59.6 c3.7-58.7,31.4-112.8,35.4-171.4c3.9-39.2,11.4-78.4,6.6-118c5.5,8,6.3,17.9,7.6,27.3c4.3,37.3-0.3,74.9-4.5,112 c-3.8,35-14.8,68.4-22.7,102.5c-5.3,22.1-12.1,48.2,1,68.8c4.4,8.8,14.8,5.5,22.6,5.2c-1.5-11.4-2-22.9,3.3-33.3 c9.3,11.1,9.6,27,19.4,37.9c8.4,9.5,19.4,16.1,29.7,23.3c-17.1-65.2-14.1-133.4-12.3-200.2c-1.5-51.1,7.8-103.4-6.3-153.4 c1.4-0.1,4.2-0.3,5.6-0.4c5.4,26.8,10.8,53.8,12.2,81.2c0.7,71.4,0.1,143,5.3,214.2c3.1,25.3,5.3,53.3,21.6,74 c5.2,6.5,10.4-3.4,13.8-6.7c9.5-13.3,21.5-25.9,37.9-29.9c16.3-4.3,30.8-12.9,45.2-21.5c-35.6-17.7-46.5-58.1-58.4-92.6 c-8.6-28.8-20.9-56.7-25-86.7c-4.5-28.6-4.4-57.7-5.8-86.5c7,30.4,8.7,61.6,14.1,92.3c7.7,35.3,22.3,68.4,35.1,102 c8.8,20.7,18,44.2,38.5,56.1c18.7,10.9,37.6-5.7,56.9-5.9c-12.5-17.6-26.1-34.4-37-53.1c-21.1-33.4-34.1-71.1-45-108.9 c17.9,49.4,38.2,99.8,75,138.4c12.9,11.6,31.4,25.2,49.3,16.2c17.5-12,29.8-30.7,50-39c-20.7-12.9-37.6-30.4-54.4-47.7 c-28.2-23.8-44.8-57.9-57.6-91.8c-10.9-28.4-25.9-57.2-22.5-88.6c4.4,20.5,5.7,41.8,14.6,61.2c14.8,34.9,29.4,71.3,56.7,98.5 c20.6,22.7,44.6,43.4,73.2,55.2c11.3,4.9,23.8,1.7,35.8,2.1c7.9-12.7,16-25.5,20.9-39.7c12.9-35.7,10.7-74.4,10.4-111.7 c-1.6-62.6-20.5-123.2-45.8-180c-33.8-70.5-73.1-138.5-117.2-203.2c-34.4-50.4-76.5-94.8-117.6-139.5 c-34.4-39.8-73.9-74.5-111.6-110.9c-6.5-6.4-12.8-13.3-20.9-17.8C1568,2689.4,1539.3,2675.4,1507.9,2672.1z M1090.1,2701.5 c-34,45.9-68.7,91.4-103.9,136.5c-39.5,50.3-73.7,107.4-84.4,171.4c23-38.2,48.2-75,69.3-114.3c11-22.2,30.8-37.6,45.7-56.9 c21.1-24,39-50.9,63.8-71.4c-35.1,53.7-83.6,98.6-109.7,158.1c-13.7,32.7-33.4,63.1-42.7,97.5c-4.8,16.2-2.5,35.7,10.7,47.5 c5.7,4.7,12,14,20.4,9.5c34.3-14.8,55.4-47.4,77.6-75.7c20.6-30.2,49.2-53.9,69.3-84.4c15.1-19.4,28.1-41.4,47.7-56.4 c-5.3,11.8-13.1,22.2-19.3,33.6c-22.8,43.8-56,80.7-84.2,120.8c-18.7,29-31.6,62.3-57.7,86c8.3-6.8,16.4-13.7,23.6-21.6 c39.8-43.2,74.7-90.5,113.3-134.8c27.9-32.4,50.7-74,92.7-89.9c18.4-7.9,35.8,4.2,45.5,19.2c0.3-33.6-34-51.7-63-56.4 c-20.1,9.6-42.2,15.3-64.4,17.3c-6.9,1-12.4-3.4-18.1-6.2c18.4-17.4,36.3-36.4,44.4-61c0.7-21.3-15.3-39-32.3-49.6 C1121,2711.2,1103.5,2711,1090.1,2701.5z M1140.4,2703.7c14.8,10.6,28.3,22.6,40.3,36.3c3.8-9.9,6.8-20.1,10.2-30.2 C1174.7,2704,1157.5,2702.6,1140.4,2703.7z M808,3000.3c8.3,10.3,16.1,21.3,19.6,34.3c13.4,45.1,10.1,94.5-6.9,138.2 c-20.5,54.5-52.6,103.4-81,154c-16.4,26.6-34.3,52.2-49.8,79.3c11.2-3.5,23.9-3.5,34.2-9.1c27.7-34.7,40.9-78.1,64-115.6 c22.5-38.8,51.8-76.3,92.3-97.3c-21.5,17.2-41.2,37-55.6,60.8c-34.8,51.6-52.9,111.8-77.5,168.6c13.6-15.2,21.1-34.4,31.4-51.8 c13.8-26.1,30.9-50.2,42.7-77.2c28.6-61.4,85.2-111.1,152.2-124.9c31-6.8,60.7,7.4,85.4,24.9c-14.5-25.3-39.5-42.8-66.4-52.9 c-29.1-11.2-61-8.6-91.5-7.8c-35.7,5.2-59.6,35.9-75.3,66c6.4-39.1,13.6-81.7,43.6-110.4C865.8,3043.8,840.9,3013.2,808,3000.3z M841.2,3150c11.8-14,25.7-26.8,43.2-33.2c14-6.4,29.7-3.3,44.6-4.1c-13.9-10.3-29.3-18.4-42.4-29.9 C863.1,3098.3,850.8,3124.5,841.2,3150z M685,3426.9c15.7,3,32.7,5.7,47.8-1.1C717.2,3421.2,700.1,3420.3,685,3426.9z" fill="#d8852b"/></g><g id="change1_6"><path d="M1355.4,1123.1l7.3-0.5c-2.8,54.2-3.6,108.5-1.7,162.7c1.3,26.9,0.3,54.1,5.3,80.7c-1.2-0.1-3.6-0.3-4.8-0.4 c-0.3-9.8-0.7-19.6-2-29.3C1350.6,1265.6,1354.6,1194.2,1355.4,1123.1z" fill="#d8852b"/></g><g id="change1_7"><path d="M1564.5,2719.4c21.4,11.8,31.1,34.9,43.8,54.4c15.4,24,30,48.6,46.8,71.8c34.6,50.9,45.6,112.6,58,171.7 c7.5,36.7,10.1,74.5,7.6,112c-2.1,28.4-1.5,57.2-7.6,85.3c1.2-32.9,4.3-65.7,0.9-98.6c-1.9-67.1-17.2-133.1-38.2-196.6 c-20-59-66.9-102.5-96-156.5C1571.3,2749.7,1565.2,2735.2,1564.5,2719.4z" fill="#d8852b"/></g><g id="change1_8"><path d="M1610.7,2760.2c34.4,24.4,59.5,58.9,85.4,91.6c33.2,42,48,94.4,64.3,144.5c14.8,47.4,28,95.9,30.3,145.7 c2.2,32.2,10.8,63.6,13.2,95.9c-4.4-2.2-6.9-5.6-7.3-10.4c-10.1-47.6-16-95.9-24.9-143.7c-13.3-53.5-30.5-106.1-52-156.9 c-16-37.1-39.6-70.3-66.6-100.2C1634.9,2807.3,1621.7,2784.1,1610.7,2760.2z" fill="#d8852b"/></g></g><g id="change1_5"><path d="M1334.2,1429.9c6.3,5.3,9.8,19,20.1,15.1c4.7,8.1,9.2,16.5,14,24.7c-15.4-6.4-26.7-18.9-38.1-30.5l0.8-1.7 C1331.8,1435.6,1333.4,1431.8,1334.2,1429.9z" fill="#d8852b"/></g><g id="change1_3"><path d="M1597.8,2439.9c9.8-4.7,19.3-10.1,28.6-15.6c4.4,0.6,8.8,1.3,13.2,1.8c2.9,0.2,8.7,0.6,11.6,0.9 C1634.8,2436.2,1615.9,2437.7,1597.8,2439.9z" fill="#d8852b"/></g><g id="change1_1"><path d="M1093.9,2622.5c8.9-1.2,17.8-2.1,26.8-3c-3.1,0.9-9.4,2.8-12.5,3.8c3.4,3.2,6.8,6.7,10.1,10.2 c-1.9,9.8-3.8,19.6-6.2,29.3c0.1-7.3,0.9-14.6-0.3-21.8C1107.5,2633.4,1099.9,2628.5,1093.9,2622.5z" fill="#d8852b"/></g><g id="change1_2"><path d="M880.7,3183.4c8.4-12.1,22.8-16.4,36.1-20.9C906.8,3172.7,894.1,3179.1,880.7,3183.4z" fill="#d8852b"/></g></g></svg>