<?xml version="1.0" encoding="UTF-8" standalone="no"?><svg xmlns="http://www.w3.org/2000/svg" xmlns:xlink="http://www.w3.org/1999/xlink" contentScriptType="text/ecmascript" fill="#000000" width="1449.2" zoomAndPan="magnify" contentStyleType="text/css" viewBox="525.3 135.4 1449.2 2223.1" height="2223.1" preserveAspectRatio="xMidYMid meet" version="1"><g fill="#a77352" id="change1_1" data-name="Layer 5 copy"><path d="M1966.33,170.63c-7-5.9-16.25-8.71-24.82-11.32-11.21-3.4-22.17-7.52-33.43-10.74a116.47,116.47,0,0,0-52.16-2.74,68.2,68.2,0,0,0-22.13,7.71,22.33,22.33,0,0,0-9,9.57c-1.46-12.72-9.2-23.26-22.79-14.34-8.14,5.34-15.18,12.06-23.49,17.25-9.83,6.13-19.56,12-27.55,20.55-10.42,11.13-20.41,29.65-16,45.24-12-1.7-24.09-.34-36.52,2.16a586.15,586.15,0,0,0-60.81,15.78c-15,4.75-30,10-44.83,15.53.25-4.94-1.63-10.49-3.64-14.14-3.52-6.42-9.22-7.26-15.22-7.25,13-19.51,24.06-38.92,26.25-63.12,1.3-14.44-7.22-45.41-27.42-34.61-4.38,2.34-7.48,7.13-10.11,11.13-4.6,7-9.25,13.85-14.51,20.4-9.94,12.39-21.29,23.6-32.86,34.45-18.93,17.75-43.27,30.32-59.92,50.46a23.34,23.34,0,0,0-6.21-2.41c6.89-7.4,11.83-17,15.51-26,5.08-12.34,8-25.05,7-38.41-1.27-17.29-6.13-51.28-28.38-53.08a5.81,5.81,0,0,0-5.68,4.32c-4.64,28-20,56.16-37.81,78-18.81,23.06-43.33,41-65.6,60.53-36.29,31.74-75.41,71.28-74.63,122.59-7.17,1.86-13.84,6.52-19.33,11-18.14,14.88-28.94,37.29-43.46,54.31-15.11,17.72-34.58,32.36-53.06,46.33-18.68,14.13-37.76,27.72-55.93,42.53-39.16,31.91-75.68,68.22-109.78,105.43q-21.83,23.82-42.19,48.92c5.79-12.25,11.15-24.65,16.19-37a471.74,471.74,0,0,0,34.56-149.42c3.23-51.36,3.3-103.12-9.63-153.21-6.29-24.35-15.24-47.94-25.31-71-10.13-23.17-22.5-45.51-27.86-70.45-3.59-16.69-1.53-34,4-50,1.4-4.06-2.27-8.42-6.37-8.36-33.34.54-51.83,27.07-60.63,56.41-5.34,17.82-8.38,36-7,54.59,1.39,18.41,7.19,36.09,12.59,53.72a23.06,23.06,0,0,0-18.57,1.44c-13,6.84-13.23,23.77-7.73,35.24,3.25,6.79,8.38,12.77,12.33,19.17a188.26,188.26,0,0,1,11.11,21.2,142.2,142.2,0,0,1,11.75,47.43c-10.12-7.47-22-14-34.11-15.42-11.65-1.33-23.62,1.18-32.73,8.8-7,5.88-8.32,14.78-5.84,22.77-5.59-1.13-11.27-1.78-16.58-2.36A138.74,138.74,0,0,0,736.57,484c-12.91,3.38-28.58,10-33.74,23.4-5.37,13.91.79,28.71,8.32,40.53,19.3,30.31,55.31,43.76,79.67,69.15,22.75,23.73,30.44,59.62,29.83,92.33-15.48-13.72-40.19-31.29-50.49-9.41-2.47.41-4.59,2.48-3.45,5.35,17.35,43.38,19.79,89.19,11,134.83-8.81,45.83-26.94,89.64-46.1,132-21.13,46.67-44.1,92.47-65,139.26-21.53,48.27-39.6,97.76-55.7,148.09-32.58,101.85-60.58,206.41-75.11,312.48-7.35,53.69-10.48,107.21-8.28,161.37,2.06,50.7,5.78,101.94,12.59,152.24,23.12,170.9,98.84,356.54,261.73,437.17a351,351,0,0,0,80.61,28.08,216.1,216.1,0,0,0,47.57,4.7c12.21,2.91,26.11,1.59,37.91.49a184.38,184.38,0,0,0,23.83-3.3c40.28-2,79.65-16.56,113.54-37.9,36-22.65,68.3-52.18,90.94-88.38,43.56-69.67,58.7-163.26,35.67-242.43-21.67-74.5-84.93-131.53-161.73-143.66-38.85-6.13-78.16.3-114.66,14.24-37,14.11-70.49,36.76-92.27,70.31-39.39,60.68-26.15,151.28,35.54,190.18A178.49,178.49,0,0,1,860,2093c-30.27-22.68-51.62-56.28-64.27-91.51-14.16-39.47-17.13-82.28-11.13-123.64a248.62,248.62,0,0,1,17.78-63.93c9.41-21.48,23.49-39.86,38.38-57.8,13.72-16.52,27.83-32.61,40.15-50.24,12.47-17.85,22.55-37.41,32.35-56.81.91-1.8-1.26-3.8-2.82-2.51-.55-7.25-10.3-11-15.82-13.3a48.47,48.47,0,0,0-18.06-3.14c13.89-15.08,25.93-31.43,33.44-50.89,11.71-30.34,7.47-64.73,24.38-93.29,1.48-2.5.71-6.3-2-7.67-25.63-12.86-55.3-14.34-83.42-7.53,19.44-27.08,20.75-67.06,32.36-97.1,1.2-3.1-1.87-6.89-5.08-6.68a69.4,69.4,0,0,0-15.76,2.9c6.29-9.85,11.34-20.86,16.9-30.28,13.26-22.51,29-43.74,44.6-64.66,31.41-42.15,66.14-81.58,102.35-119.64,33.94-35.68,68.83-70.24,107.35-101a589.18,589.18,0,0,1,61.69-43.2c20.33-12.37,41.81-21.51,63-32.16h0q11.94.38,23.82,1.49c14,1.32,29.61,4.84,39-8.83,4.79-6.93,6.92-15.62,5.06-23.49,7.26,1.75,14.25,6.3,21.64,7a27.09,27.09,0,0,0,23.29-9.13,20.83,20.83,0,0,0,4.66-12.94c2.85-.48,5.69-1.09,8.47-1.57,7.47-1.28,15-2.3,22.49-3.3a385,385,0,0,1,42.63-3.22c28.13-.62,57.68,1.91,84.39,11.24,21.23,7.41,43,21.35,56.44,39.56,6.52,8.79,9.28,18.53,9.2,29.41-.07,8.28-2.55,14.22-6.13,20.27-9.37-20.36-34-28.71-55.92-18.85-32.11,14.45-36.26,56.57-17.74,83.52,21.46,31.21,63.61,33.22,96.54,21.25,31.56-11.48,48.77-42.41,57-73.38,10.47-39.51-12.53-82.19-41.89-107.4-32.11-27.55-75.47-42.63-116.55-49.85-43.16-7.58-86.67-5.47-129.5,2.93A778.39,778.39,0,0,0,1245.2,924c-54.78,21.81-104.92,51.2-151.27,86.13-24.75,13.8-47.74,31.31-63.78,53.48q-10.32,9.56-20.38,19.46a1128.38,1128.38,0,0,0-181,232.71c-8.79,15-17.88,30.07-25.46,45.74-4.91,10.15-9,20.74-14.25,30.74a94.29,94.29,0,0,0-9-7.82c-2.28-1.76-5.48-.23-6.87,1.8-6.78,9.9-6.42,21.89-11.23,32.57-5.33,11.85-14.52,21.6-20.38,33.2-10.92,21.66-15.29,48.5-14.45,73-4.93,4.7-9,10.66-13,16a220.21,220.21,0,0,0-18.78,30.2c-8.12,15.63-12.74,32.62-16.38,49.79a89.38,89.38,0,0,0-9-26c-6.68-12.29-21.4-27.74-36.14-18.7-8,4.9-13.91,14.85-19.8,21.91a186,186,0,0,0-19.67,29c-1.35,2.43-2.61,4.91-3.81,7.41,7-92,28.69-181.91,54.6-270.55,28.64-98,73.11-190.5,123.16-279.18a716.8,716.8,0,0,1,130.32-167c26.61-25.32,53.5-50.66,82.12-73.69,24.79-19.94,55-34.08,75.89-58.51a4,4,0,0,0,.9-3.68,17.65,17.65,0,0,0,2.49-9.43,19.74,19.74,0,0,0-.52-8.32,14,14,0,0,0-8.92-9.62c21-17.13,43.16-35.37,40.44-65.24a6,6,0,0,0-4.15-5.46c-7.58-3-16.54-3.08-24.61-3.29-6.48-.16-13.47-.4-19.92,1.06,22.63-24.08,46.47-47.06,73.52-66,20.61-14.4,40.29-30,60.47-45,17.42-12.93,35.81-26.44,56-34.63,20.64-8.35,47.73-14.26,67-28.28,4.4,10.44,14.79,18.22,24.35,24,17,10.2,37.08,13.44,56.57,14.84C1431.75,550.23,1484,536,1532.7,521c88.84-27.25,181.23-66.31,276-46.19A128.79,128.79,0,0,1,1841,486.1a64.65,64.65,0,0,1,6.93,4.18,139.42,139.42,0,0,1,29.52,17.06,6.42,6.42,0,0,0,.53-1.22c10.47-31.92-10.55-70.54-34.45-90.92-15.59-13.3-35.37-23.34-54.88-29.33-18.31-5.63-38-4.86-57.25-5.15,9-10.67,15.3-24.16,7.88-37.55-7.15-12.91-25.81-17.21-38.91-20.34-21.58-5.16-42.08-4.52-63.56.91-8.27,2.1-20.2,5-28.62,10.75-.41-10.12-7.77-18.9-18.24-21.87a46.4,46.4,0,0,0-16.33-1.25c7-2.74,14.25-5.05,21.42-7.27,18.78-5.8,38-9.89,57.08-14.81,21.74-5.61,43.56-9.43,65.74-12.9,5.82-.92,15.62-1.43,23.73-4a4.28,4.28,0,0,0,1.75.14,17.7,17.7,0,0,0,9.61-4.68c3.46,9.93,15,16.82,24.06,20.45,13.09,5.27,28.52,6.08,42.38,4.23,12.3-1.64,24.67-2.12,36.85-4.68,4.68-1,21.61-6.53,19.13-14a10.67,10.67,0,0,0,.19-8.28,61.09,61.09,0,0,0,11.34-2c12.7-3.31,24.69-9.87,35.64-16.93,19.32-12.46,42.39-30.7,49.54-53.59C1974.53,185.07,1972.9,176.19,1966.33,170.63ZM1512,228.08c18.6-14.65,35.29-32.35,49.62-51.16,3.36-4.41,14.54-27.13,21.28-21.7,7.53,6.09,7.5,19.91,6.72,28.48-2.19,23.8-17.08,42.76-28.79,62.61a4.82,4.82,0,0,0,4.12,7.19c3.89,0,9.34-1.49,13,.1,2.71,1.17,3.34,4.27,3.9,6.74.34,1.5-.7,6.07.35,4.79a5.62,5.62,0,0,0-1.38,4.71c-19.5,7.56-38.81,15.63-57.89,24a862.4,862.4,0,0,0-105.43,54.53q-24.6,15-47.72,32.36c-4.94,3.7-9.78,7.53-14.55,11.44,28.41-27.93,67-43.46,95.17-72,11.12-11.27,19.45-24.92,16.61-41.23a23.08,23.08,0,0,0-5.7-11.54C1477.66,253.45,1495.2,241.35,1512,228.08ZM867.53,404.23c-5.27-10.81-12.6-20.29-18.21-30.86-3.71-7-2.48-15.57,4.19-20.33,6.12-4.36,14,.89,18.42,5.08,3.93,3.74,10.69.06,9.18-5.34-5.07-18.1-11.58-35.8-15.75-54.14-4.24-18.7-3.43-36.29,1.28-54.75,6-23.6,20.67-48.37,45.24-52.72-14,45.61,11.55,87.41,29.22,129.3a442.31,442.31,0,0,1,23.67,72.71c5.87,25.58,7.5,51.12,7.5,77.29,0,53-2.94,104.64-17.69,155.82-12.3,42.65-30.4,82.5-51.67,121.1.23-.71.47-1.42.69-2.13a272,272,0,0,0,9.74-42.76c7.08-10.31,11.41-23.22,15-34.66,5.39-17.11,7.74-35.17,8.17-53.05a235.56,235.56,0,0,0-21.1-102c-7.14-15.77-19.49-29.47-32.63-40.47l-2-1.65C886.63,448.17,877.38,424.41,867.53,404.23ZM896.85,2084.7c-17.15-23.07-21.4-53-17.19-80.9a151,151,0,0,1,38.15-79.23c25.37-27.46,60.92-38.81,97.34-42.59,35.44-3.67,70.44,3,101.08,21.44a137.65,137.65,0,0,1,39.52,36.11c5.79,7.9,10.58,16.52,15.33,25.15-.65-4.67-1.15-9.37-1.43-14.09a150.34,150.34,0,0,0-17.07-25.73,158,158,0,0,0-49.43-38.85c-39.8-20-88-18.63-130-6.69-59.44,16.91-99,71.15-105.28,131.66-2.35,22.71,1.19,45.82,11.08,66.1-29.88-40.33-33-101.21-5.49-146.21,21.79-35.7,59.93-58.12,98.82-70.72,38.08-12.34,78-14.25,116.62-3.15,78.32,22.52,127.06,96.56,134.61,175.11,6.07,63.18-9.11,129.23-42.16,183.57-3.3,4.2-6.24,8.84-9.48,12.62-2,2.27-3.86,4.55-5.76,6.84l-.39.35c-7.69,6.76-14.2,14.67-22.27,21.08a314.44,314.44,0,0,1-52.31,34.18c-31.92,16.33-66,26.28-102,25.48-59.82-1.31-132.64-31.62-139.2-99.08-.25-2.5-4-2.61-4,0,0,67.64,64.69,101.45,124.08,109,47.06,6,93.2-6,133.43-29.12a172,172,0,0,1-40,19.49c-14.81,6.36-30.65,10.71-46.59,14.18-3.79,1.12-7.58,2.18-11.38,3.09-19.73,4.77-40.76,7.48-61,5.1-5,.26-10.07.43-15.09.46-25.54.18-50.19-5-74.46-12.56-2.52-.78-5-1.6-7.51-2.44-4.51-3-10.33-5.12-14.09-7.06A91.47,91.47,0,0,1,808.22,2298c-9-9.61-17.92-22.61-23.28-36.47-3.07-10.78-4.35-22.32-2.21-32.69,1.25-6,5.51-9.91,11.08-12,6.46-2.39,10.22.83,13.38,6.46s12.65,3.29,12.45-3.37c-.39-13-.5-25.24,5.33-37.25,6.79-14,20-15.59,33.66-11.12,15.87,5.19,28.72,17.85,37.69,31.51,9.72,14.82,12.45,30.19,14.89,47.31a4.7,4.7,0,0,0,1.53,3,29,29,0,0,0,5.33,10.78,2.52,2.52,0,0,0,3.57.13c-3-9-2.67-18.91-.1-28.54a5,5,0,0,1,1.84-2.8,27.11,27.11,0,0,1,4.16-5.52c2.89-3,6,1.67,7.93,3.42,11.28,10.22,24.64,16.73,39.17,21.06,31.56,9.43,66.82,5.64,95.86-9.48,28.11-14.63,51.26-37.75,67-65.15,15-26.24,25-60.31,22.67-90.75a5.83,5.83,0,0,0-11-2.5c-7.25,6.31-13,13.89-20.19,20.44-3.37,3.08-8.17,6.44-13,5.48-6.7-1.34-9.6-8.39-9.92-14.36-.7-13,4.18-26.22,6.29-38.92a63.49,63.49,0,0,0-4.91-37.09c-11.34-25.34-34.14-36.3-60.52-39.63-21.45-2.71-52,.75-61.33,23.74a2.55,2.55,0,0,0-.17.78c-1.19,1.11-.93,3.64.91,3.94,15.28,2.51,28.74,9.76,35.93,23.84,6.92,13.53,6.5,30,2.28,44.22-9.39,31.6-40,44.66-70.27,42.5a70.46,70.46,0,0,1-23-6.3A92.65,92.65,0,0,1,896.85,2084.7ZM1171.78,971.5c42.17-23.86,87.2-42.34,133.45-56.63,44.26-13.68,90.8-25.35,137.23-27.4,44.7-2,90.48,5.15,131.63,23,39.93,17.35,76.14,46.13,85.34,90.78,6,29.26-7.85,64.7-29.7,84.69-19.6,17.93-57.06,23.94-81,12.63-27.69-13.1-41.61-52.95-16.9-75.84,8-7.44,20.18-10.42,30.79-8.26,13,2.63,19.7,13.46,21.39,25.87.84,6.17,9,4.71,10.58-.37,9.06-3.23,12.84-15.64,14.49-24.18,2.25-11.66,1.26-24.68-3.73-35.53-10.68-23.23-34.33-39.44-56.74-50.1-27.29-13-59.08-16.27-88.94-16.76a367,367,0,0,0-51.85,3.22c-7.5,1-14.94,2.19-22.36,3.63-4.31.84-8.91,1.54-13.34,2.68-2.29-5.87-6.74-10.74-12.91-12.43-2-.54-4.46,1.46-3.6,3.6,1.68,4.22,4.22,8.87,5.59,13.29-2.12,1.73-1.28,4.72.93,5.8-.12,4-2.31,7.53-8.56,9.86-7,2.62-15.07-1.84-21.52-4.3a35.79,35.79,0,0,0-18.55-2.22c-4.57.66-5,6.71-2.52,9.53,4.58,5.12,2.66,12.72-.35,18.1-4.85,8.69-15.89,7.13-24,6-17.59-2.51-35.64-2.74-53.37-1.91a289.91,289.91,0,0,0-85.43,17.56Q1159.64,978.38,1171.78,971.5ZM822.15,1348.79c13.17-23.07,26.84-45.85,41.27-68.17,27-41.7,57.32-81.45,89.36-119.37,22.42-26.53,46.14-52.35,71.26-76.77l.13-.13a804.27,804.27,0,0,1,82.62-70.53,332.51,332.51,0,0,1,65.11-25.65,264.32,264.32,0,0,1,55.77-8.94c-12.13,5.63-23.87,12.32-35.1,18.95-20.72,12.24-40.35,26.22-59.36,40.93-38.84,30-73.67,64.51-107.44,100.05-35.24,37.07-69.34,75.23-100.51,115.8-16.21,21.1-31.79,42.71-46.29,65-12,18.47-21,39.22-34.17,56.92-17.13,10.31-30.13,27.27-41.31,44.94a49,49,0,0,0-2.31-11.13,42,42,0,0,0-5.84-11.22C805.82,1383.56,812.7,1365.33,822.15,1348.79ZM751.07,1454.3c5.52-10.75,13.8-19.83,19.35-30.6.55-1.06,1-2.16,1.45-3.26,5.14-6.38,9.36-13.28,10.56-22.09a5.4,5.4,0,0,0,0-.56,7.49,7.49,0,0,1,.66.52c12.76,12.2,13.84,33.15,10.14,50.79a5,5,0,0,0,7.33-1.71c14.43-25.92,34.72-64.07,67.26-69.27-12.92,32.74-11.9,75.18-40.74,98.46a4.86,4.86,0,0,0-1.41,1.81,150.63,150.63,0,0,0-53,37c-1.88-4.28-5.76-7.18-12.45-7-8.66.21-17.51,4.74-24.93,10C737.41,1496.28,740.82,1474.26,751.07,1454.3Zm315.64-760.72c4.58.22,9.11.66,13.68,1,1.88,27.38-30.38,49.46-51.13,60.88-6.52,3.58-2.08,14.17,5,12,5-1.51,12.27-4.17,14.1,2.36,1.51,5.38-2.21,12.11-4.9,16.48a3.15,3.15,0,0,0-.33.78c-14.38,12-31.35,21.12-46.8,31.38-20.11,13.38-38.62,29.28-56.68,45.26-37.3,33-74,66.85-106.41,104.77-31.74,37.17-58.56,77.74-82.53,120.25-24.9,44.17-48.12,89.28-68.52,135.71-31,70.63-53.39,144-72.16,218.68-18.37,73.09-32.16,147.74-31.54,223.28-.87,2.94-1.71,5.89-2.5,8.85a245.58,245.58,0,0,0-7.07,37.34c-.34,3.15-.59,6.4-.63,9.66a296.25,296.25,0,0,1,20.49-52.2,183.44,183.44,0,0,1,10.27-27.29,172.81,172.81,0,0,1,17.55-28.44c3.64-4.88,7.76-9.38,11.81-13.92,3.85-4.31,7.24-9.51,11.92-13,6-4.51,14.32,8.57,16.92,13,4,6.78,6.19,14.54,7.8,22.2,7,33.51-.2,70.3-7.22,103.22-7.69,36-19.3,71.09-21.28,108.08-.57,10.52-1.4,24.34,6,32.82,9,10.32,22.88-2.91,26.58-11.35,6.28-14.35,6.5-31.24,7.54-46.63,1.62-24,1.63-47.67,1.56-71.69a595.59,595.59,0,0,1,4.6-76.68c3.08-24.4,7.07-50.22,16.15-73.19,7.34-18.57,19.25-38.82,33.41-53.37a3.24,3.24,0,0,0,1.33-1.34c.22-.23.44-.47.67-.69,5.14-5,21.31-16.38,28.89-12.18,1.71.94-.34,7.49-.65,8.71-1.59,6.14,6.37,9,9.78,4.13,14.24-20.19,36.13-36.47,60.54-46l.24-.09c28.78-11.19,61-13,88.48-.77-13.26,25.88-11.32,56.2-19.26,83.84-7.66,26.66-26.18,44.77-45,64-4.12,4.2,0,10.89,5.58,9.59a60,60,0,0,1,24.82-.11c3.94.78,7.6,2.67,11.11,4.56,2.26,1.23.83,3,.29,5.28a82.3,82.3,0,0,1-5.11,14.56c-9,13.06-17.21,26.82-27,39.27-15.5,19.6-32.71,37.78-48.3,57.3-27.21,34.1-42.84,74.28-48.43,117.47-10,77.14,11.25,161.42,70.65,214.65a179.48,179.48,0,0,0,60.55,35.45c12.43,4.36,25.31,6.73,38.31,8.59,12.7,1.82,24.72,2.31,36.15-3.19a56.5,56.5,0,0,0,8.6-2c5.61-1.74,14.16-5.21,17.72-10.74q3.18-1.7,6.23-3.7c26.53-17.59,37.88-53.24,29-83.35-6-20.38-23.12-34.09-43.43-33.77,18.22-17.42,45.32-16.31,68.76-9.66,14,4,25,13,32,25.65,7.31,13,7.91,26.58,5,40.82-4.26,20.5-15,53.38,12.46,62.76,13.25,4.52,25.43-5.25,34.23-16.93a180.36,180.36,0,0,1-4.94,28.31,161.89,161.89,0,0,1-20,44.59c-17.66,27.75-46.49,51.6-78.26,61-33.25,9.81-71.46,3.64-99.46-16.6-4.35-3.14-8.89-6-14.33-6.51-4.49-.41-8.11,2.83-10.86,6.42a112.45,112.45,0,0,0-15.36-29.66c-11.38-15.88-27.65-28.31-46.68-33.27-31.34-8.17-45.73,18.68-49.48,45.09a22.55,22.55,0,0,0-8.93-2.3c-9-.49-15.3,5.91-20.06,12.63-6.38,9-6.74,20-5.52,30.66.06.56.15,1.1.23,1.64a54,54,0,0,0,2.7,16.72c4.23,13.16,11.84,25.82,19.81,37l.4.53c-59.62-31.62-109.24-79.81-146.35-137-49-75.5-77.56-163.41-93-251.61-8.49-48.54-11.91-98-15.22-147.12-3.7-55-3.47-109.49,2.62-164.25,11.9-107,40.66-211.85,72.68-314.37,16-51.36,33.78-102.21,55.36-151.52C693,1088.42,716.64,1041.81,739,994.6c22-46.52,42.5-94.13,53.15-144.7,10.09-47.89,10.6-100.47-14.63-143.65a5.59,5.59,0,0,0,1.06-1.33c8.48-15.24,36.35,14.81,43.15,21.68,3.94,4,9.6.7,10.12-4.2,3.32-31.4-2.74-66.7-18.35-94.3-16.86-29.82-49.45-46.05-75-67.1-11-9-20.65-21.33-24.85-35-5.09-16.57,8.1-25,21.93-29.74,14.67-5,30.59-5.92,46-5.08,14.83.81,27.83,5.81,42,9.36,3.81,1,7.09-4,4-6.82a42.23,42.23,0,0,0-14.93-8.44c-2.45-9.46-.74-17.3,9.37-21.52,10.72-4.47,21.91-2.34,32,2.48,29.17,13.92,48.46,40.11,59,69.88a228.88,228.88,0,0,1,12.71,86.59,205.59,205.59,0,0,1-7.17,45.11c-.72,2.67-1.6,5.26-2.54,7.83a272.65,272.65,0,0,0-.54-34.55c-2.75-34.21-13.17-69.54-39.07-93.37-15.58-14.35-38.61-25.52-60.12-24a3,3,0,0,0-.81,6c10.62,4.15,21.79,6.3,32.14,11.2a75.64,75.64,0,0,1,24.75,19.54c11.43,13.36,19.16,29.33,24.1,46.1,10.27,34.91,8.64,73.4,2.59,108.92-7.64,44.75-25.79,87.42-45.81,127.88C841.61,866.61,829,889.35,817.7,912.8c-9.84,20.46-18.06,41.76-28.2,62l-.24.45c1.89-2.84,3.73-5.71,5.49-8.62q7.5-12.48,15.2-24.87l.66-1.3c21.3-24.51,40.83-50.76,64.6-73,11-10.24,23.08-19.33,35.33-28a1.62,1.62,0,0,0,.58-.42c2.2-1.56,4.39-3.11,6.59-4.65,14-9.85,31.63-17.38,43.49-29.88a1.53,1.53,0,0,0-1.48-2.53c-13.15,2.58-25.3,11.32-36.34,19.52,26.13-36.31,55.85-70,85.68-103.29l6.54-7.27a91.32,91.32,0,0,1,18-12.06C1044,695.08,1056.17,696.37,1066.71,693.58Zm214.84-190.74c-15.53,8.26-32.68,13.12-49.08,19.31-42.37,16-77.12,49-112.88,75.79-19.32,14.46-37.95,29-55.37,45.76-17.89,17.23-34.48,35.73-50.74,54.47C980.72,735.94,947.86,774,921,816.3c-2.63,4.15-5.16,8.35-7.65,12.58a471.59,471.59,0,0,0-38.09,30.34c-22.15,20-39.48,44.38-57.86,67.75,8.21-16,16.84-31.82,25.56-47.51,8.55-15.38,16.81-30.87,24.58-46.57a1.83,1.83,0,0,0,.52-.58c50.58-89,120.9-165.41,196.33-234a708.58,708.58,0,0,1,57.78-47.7c18.91-13.86,38.08-27.36,56.24-42.21,12.36-10.09,24.59-20.71,34-33.63,7.26-9.93,14.31-20,22.16-29.46,7.18-8.65,15.07-18.18,24.66-24.24,9.81-6.21,17.75.95,20,11.33a3.38,3.38,0,0,0,1.18,1.91c-5.81,2.61-10.91,6.85-13.75,12a3.51,3.51,0,0,0,.4,4c6.85-4.91,15.21-9.76,22.82-9.13,8,.67,14.09,7.29,11.5,15.58-2.06,6.56-6.58,13.11-12.14,19a4.39,4.39,0,0,0,5.22-1.4c1.82-2.17,3.8-4.47,5.62-6.9C1320.44,477.49,1291.36,497.63,1281.55,502.84Zm306.26-177.26c7.72,2.37,7.46,11.91,9.11,18.36a4.47,4.47,0,0,0,2.53,3.18c1,2.68,4.86,4,6.63.75,5-9.19,21.22-11.22,30.47-13.41,18.3-4.32,37.26-5.58,55.6-.84,10.56,2.73,21.3,5.4,30.55,11.41,15,9.78-.34,25.7-8.64,34.06-5.37,5.42,1,13.11,6.92,11.21,18.43,3.72,37.68,1.45,56.13,5.21,19.31,3.94,37.32,14.25,53.3,25.45,20,14,38.82,43.54,37.32,69.83-8.59-9.23-21.09-15.51-32.19-20.16-17.3-7.25-36.31-10.16-54.89-11.75-44.74-3.82-89.5,2.56-132.81,13.59-50,12.73-98.67,30.06-148.42,43.69-48.12,13.18-102.57,25.23-152,11.85-14.39-3.89-33.54-11.71-41.28-25.79a54.57,54.57,0,0,0,10.5-13.36,29.41,29.41,0,0,0,1.65-3.63,55.63,55.63,0,0,0,18,10.58c10.29,3.75,21.52,5.09,32.38,6,22.46,1.81,45.78-2.95,67.51-8.08,29.31-6.93,58.09-16.22,86.73-25.46,14.87-4.8,29.52-10.19,44.45-14.81s30.07-8.43,44.84-13.48a1.42,1.42,0,0,0-.76-2.73c-27.62,4-54.74,13.6-81.52,21.23-28,8-55.68,16.86-84.12,23.28-22.54,5.1-44.76,8.44-67.91,7.59a172.3,172.3,0,0,1-32.1-3.77c-8.26-1.9-18.67-4.82-25.73-9.87a21.63,21.63,0,0,0-13.35-20.05c-.22-.09-.43-.13-.65-.21a17.19,17.19,0,0,0,.28-3.88,19.35,19.35,0,0,0,1-9.59,12.36,12.36,0,0,0-10.18-10,23.21,23.21,0,0,0-4.66-.38,5.55,5.55,0,0,0-.11-.79c-5-22.17,11.61-44.87,24.36-61.83,9.85-13.11,21.53-25,33.08-36.56,6.28-6.3,12.84-12.31,19.52-18.18,5.93-5.22,12.93-9.9,17.59-16.31a2,2,0,0,0-2.18-2.85c-7.77,2.77-14.35,8.75-20.79,13.78-7.82,6.1-15.36,12.55-22.71,19.2a273.62,273.62,0,0,0-34,37.27c-8,10.56-15.41,22.05-20.52,34.31a82.07,82.07,0,0,0-4.88,15.09,20.92,20.92,0,0,0-13-7.17c-.23,0-.47,0-.7-.06a138,138,0,0,1,26.62-65.56c15.58-20.82,36.1-37.64,55.72-54.45,21.79-18.66,45-36.48,62.48-59.47,15.68-20.63,29.47-45.67,34.93-71.41,4.07,3.63,6.1,11.22,7.32,15.38a117.38,117.38,0,0,1,4.08,26.61c1.31,24.62-13.94,45.88-27.33,65-2.53,3.62,2.23,7.25,5.58,5.58a35.66,35.66,0,0,0,3.55-2.06c9.93,3.28,16.19,8.56,15.66,20-.56,12-12,22.46-20,30.17-15.61,15-34.28,26.48-52.27,38.35-17.52,11.55-34.42,24.09-48,40.26-9.17,10.94-23.3,33.29-3.68,42.14,16,7.23,35-6.32,48-14.5,21.12-13.3,40.8-28.75,61.12-43.2,36.94-26.26,78.47-47.9,123.52-55C1572.75,324.05,1580.62,323.37,1587.81,325.58Zm160.32-69.78a40.49,40.49,0,0,0-5.79,3.47c-3.17,2-7.07,2.87-10.69,3.7-8.17,1.85-16.72,2.46-25,3.82-22.06,3.65-43.38,8.44-65,14.16-18.23,4.83-36.55,9.29-54.45,15.28a211.4,211.4,0,0,0-25.74,10.62c-5.75,2.8-12.26,6-17.49,10.21-20.78,5.29-40,14.84-59,24.56-22.22,11.34-43,24.83-63.58,38.92-19.27,13.21-38.42,26.68-59,37.81-6.78,3.67-16.34,9-24.31,7.13-2.63-.61-3.5-2.32-3.28-4.6,5.77-3.81,10.74-8.8,16-13.24,7.75-6.48,15.76-12.65,23.81-18.75,15.32-11.62,31.32-22.34,47.66-32.47,32-19.87,65.8-36.81,100.25-52,36.42-16.08,73.93-30.27,111.7-42.82,18.39-6.11,37.13-10.61,56-15.18,19.07-4.63,37.25-7.34,56.42-1.79a4.72,4.72,0,0,0,2.76,0,8.61,8.61,0,0,1,.62,2.66A16.12,16.12,0,0,1,1748.13,255.8Zm117.11,16.73a25,25,0,0,1-2.9,1.91c-4.29,2.27-9.71,3-14.42,3.86-9.63,1.75-19.43,2.12-29.11,3.46a90.59,90.59,0,0,1-33.5-1.6,47.77,47.77,0,0,1-16.1-7.15c-5.1-3.51-7-8.87-10.23-13.77-.08-.13-.18-.24-.27-.36a28.86,28.86,0,0,0,1.35-15.14,16.63,16.63,0,0,0-10.51-12.17,20.56,20.56,0,0,0-7.73-.45c-3.22-13.28,7.21-28.73,15.71-38,10.63-11.57,26.41-17.41,39-26.47,4.57-3.29,8.7-7.15,13.58-10,3.74-2.2,3.83,8.28,4,11.34.53,14.1-6.28,28.25-17,37.06l.1.1c-3.53,4.07.46,10.6,6,7.84a29,29,0,0,0,8-6c14.07-7.54,36.07-6.28,45.3,6.8,8.73,12.34-20.73,27.81-29.44,29.67-6.8,1.44-3.91,11.78,2.86,10.37C1839.13,251.34,1869.55,259.8,1865.24,272.53Zm93.21-77.84c-9,18.41-28,32.79-44.91,43.48A117.59,117.59,0,0,1,1885,251.72c-6.62,2-12.84,2-19.47,2-.24-.17-.48-.35-.73-.51a69,69,0,0,0-16.09-7.57c12.63-8.34,22.87-21.57,16.83-35.24-4.49-10.14-19.47-14.68-29.39-15.66a62.38,62.38,0,0,0-17.19.64,68.91,68.91,0,0,0,6-24.32,1.55,1.55,0,0,0,.4-.44c6.37-10.82,26.81-14.15,38.09-15.38,16.3-1.79,31.85,1.1,47.37,6.11,8.45,2.73,16.65,6.11,25.12,8.78,7.54,2.37,16.42,4.51,22.59,9.72C1963.05,183.66,1960.65,190.2,1958.45,194.69Z"/><path d="M1745.85,253.35c0-.26-.44-.27-.41,0a3.74,3.74,0,0,1-1.1,3.17c-.23.24.14.61.37.37A4.14,4.14,0,0,0,1745.85,253.35Z"/><path d="M1924.49,193.38c-3.42,8.66-10.77,15.46-17.83,21.25a83.1,83.1,0,0,1-12,7.88c-3.37,1.89-7.1,3.31-8.8,7a3.08,3.08,0,0,0,1.09,4.15c8.36,4.3,19-5.52,25-10.54,8.63-7.3,16.06-16.91,18.66-28.07C1931.48,191,1926,189.69,1924.49,193.38Z"/><path d="M825.56,1593.87c-6.64,8-14.25,14.86-20.52,23.27-7.48,10-14.18,20.64-20.69,31.31-12.41,20.32-22.82,41.94-32.06,63.86-18.62,44.16-30.26,91.61-31.12,139.65-.89,50,2.78,101.08,17.11,149.21,11.09,37.23,27.82,75.51,56.35,102.73a106.11,106.11,0,0,0,9,7.53c1.47,1.12,3.4-1.4,2-2.54-31.24-25-47.42-65.72-58.34-103-14.07-48.12-16.81-98.27-16.82-148.12,0-47.27,11.35-93.74,28.84-137.44,8.93-22.31,20-43.62,31.81-64.52,5.69-10.07,11.83-19.84,17.85-29.72,6.21-10.2,11.39-21.22,18.08-31C827.64,1594.13,826.25,1593.05,825.56,1593.87Z"/><path d="M636.74,1646.06c-13.38,11.81-20.09,32.2-25.57,48.74-5.89,17.75-8.86,36.26-10.65,54.83-3.81,39.75.1,79.65,1.8,119.39a1.31,1.31,0,0,0,2.62,0c-.57-37-1.37-74.23,2.36-111.15a295.28,295.28,0,0,1,11-55.4,199.63,199.63,0,0,1,10.51-27.23c4.14-8.86,9.66-17,12.7-26.38C642.5,1646,638.77,1644.27,636.74,1646.06Z"/></g></svg>